<svg width="37" height="36" viewBox="0 0 37 36" fill="none" xmlns="http://www.w3.org/2000/svg">
<path d="M18.0139 36C8.01365 35.985 0.0134466 27.917 0.0234469 17.87C0.0334471 8.06102 8.16465 -0.01797 18.0099 3.00198e-05C28.0041 0.01803 36.0544 8.09302 36.0233 18.069C35.9923 27.951 27.8951 36.013 18.0139 36ZM17.9659 1.20003C8.68067 1.22003 1.20948 8.76702 1.22348 18.111C1.23648 27.227 8.81267 34.811 17.8899 34.799C27.3011 34.785 34.8423 27.305 34.8233 17.999C34.8043 8.69302 27.2591 1.18003 17.9659 1.20003Z" fill="#A7F0B7"/>
<path d="M18.0369 2.3999C26.6181 2.3999 33.6163 9.3889 33.6233 17.9639C33.6313 26.5969 26.6281 33.5999 17.9879 33.5989C9.36966 33.5989 2.41048 26.5799 2.42348 17.8989C2.43548 9.36689 9.45566 2.3979 18.0369 2.3999ZM18.0059 3.5999C10.1117 3.5879 3.63751 10.0469 3.62351 17.9479C3.60851 25.8839 10.0357 32.3869 17.9059 32.3989C25.9411 32.4119 32.4172 25.9989 32.4232 18.0329C32.4248 16.1384 32.0531 14.2622 31.3293 12.5115C30.6055 10.7607 29.5439 9.1697 28.205 7.82936C26.8661 6.48903 25.2762 5.42564 23.5262 4.69993C21.7762 3.97422 19.9004 3.60043 18.0059 3.5999Z" fill="#A7F0B7"/>
<path d="M24.711 12.1374C25.9411 13.3944 27.1171 14.7064 28.3871 16.0794C24.5064 20.8241 20.5186 25.6978 16.4238 30.7004C13.4827 23.3004 10.5927 16.0264 7.64459 8.60645C9.30563 8.90644 10.8447 9.17745 12.3727 9.46344C16.1058 10.1634 19.8409 10.8534 23.573 11.5784C23.975 11.6614 24.429 11.8524 24.711 12.1374ZM26.1791 16.9724C26.1621 16.9114 26.1451 16.8504 26.1271 16.7894C23.803 17.1894 21.4769 17.5804 19.1599 18.0194C18.9669 18.0554 18.7339 18.4044 18.6929 18.6374C18.5369 19.5304 18.4479 20.4374 18.3389 21.3374C18.1059 23.2534 17.8769 25.1694 17.6169 27.3274L26.1791 16.9724ZM26.2661 15.5644L23.986 13.1144L19.8779 16.5644L19.9509 16.6954L26.2661 15.5644ZM18.0859 16.4374L22.651 12.5774L11.0167 10.4124C10.9957 10.4684 10.9757 10.5244 10.9547 10.5814L18.0859 16.4374ZM17.3378 19.2454C17.5558 17.9714 17.2638 17.1934 16.2378 16.4164C14.1838 14.8664 12.2377 13.1684 10.2527 11.5314L10.1237 11.6184L16.1858 26.9804C16.6788 24.3654 16.9058 21.7894 17.3408 19.2494L17.3378 19.2454Z" fill="#A7F0B7"/>
</svg>
