<svg width="36" height="37" viewBox="0 0 36 37" fill="none" xmlns="http://www.w3.org/2000/svg">
<path d="M35.9944 19.273C35.9006 19.9428 35.8294 20.6154 35.7206 21.2833C35.3947 23.2515 34.7338 25.1491 33.7669 26.8932C33.5438 27.3009 33.2044 27.4306 32.8762 27.2417C32.5641 27.0623 32.5013 26.7204 32.7131 26.323C33.7671 24.4111 34.4361 22.3103 34.6819 20.14C35.0878 16.5591 34.4428 13.1727 32.6578 10.0502C30.0066 5.41525 26.025 2.55202 20.7572 1.66619C15.6525 0.808533 11.0597 2.11991 7.10624 5.46504C3.86343 8.20803 1.90218 11.7307 1.37249 15.9438C0.63374 21.8046 2.50406 26.7786 6.86343 30.7672C9.31536 33.041 12.4257 34.4741 15.7444 34.8592C21.45 35.5496 26.3137 33.7751 30.3122 29.64C30.3694 29.5808 30.4228 29.5188 30.4791 29.4596C30.8119 29.1064 31.1475 29.051 31.4259 29.3027C31.7044 29.5545 31.6997 29.919 31.3453 30.2835C30.855 30.786 30.3741 31.3036 29.8453 31.7611C26.205 34.9033 21.9637 36.4082 17.1703 36.195C9.22312 35.8427 2.57155 30.4074 0.576553 22.6867C0.316866 21.6844 0.229679 20.637 0.0618668 19.6102C0.0440543 19.4975 0.020625 19.3848 0 19.273V17.1631C0.0421875 16.8297 0.0871852 16.4962 0.12656 16.1627C0.588748 12.2173 2.16936 8.78857 4.88718 5.90091C7.63874 2.97662 11.0006 1.1561 14.9681 0.485386C15.6244 0.374539 16.2863 0.304085 16.9453 0.214844H19.0547C19.1569 0.23551 19.2581 0.258994 19.3612 0.275903C20.3991 0.444991 21.4575 0.531415 22.4709 0.793502C29.3981 2.58396 34.4944 8.12067 35.73 15.1538C35.8472 15.8189 35.9109 16.4934 36 17.1631L35.9944 19.273Z" fill="#A7F0B7"/>
<path d="M17.9831 3.37035C25.2366 3.36283 31.4485 8.61678 32.6288 15.7561C33.9347 23.6553 28.8853 31.068 21.0563 32.7588C13.1813 34.4497 5.27064 29.3696 3.51283 21.4863C2.09533 15.1342 4.95751 8.58766 10.56 5.36559C10.6406 5.31862 10.7203 5.26695 10.8047 5.22844C10.942 5.15878 11.1008 5.1449 11.248 5.1897C11.3953 5.23451 11.5196 5.33453 11.595 5.46892C11.6341 5.53486 11.6596 5.60791 11.6703 5.68383C11.681 5.75976 11.6765 5.83705 11.6571 5.91123C11.6378 5.9854 11.6039 6.05499 11.5575 6.11597C11.5111 6.17695 11.4531 6.22809 11.3869 6.26645C10.9491 6.55766 10.4813 6.80847 10.0603 7.12317C6.12283 10.0691 4.19064 14.0135 4.37439 18.9199C4.6097 25.2137 9.41439 30.5945 15.6403 31.6598C22.8806 32.8988 29.6841 28.3569 31.3275 21.1866C32.7797 14.8505 29.3381 8.16964 23.3381 5.66337C20.7226 4.54494 17.8231 4.27556 15.0469 4.89308C14.5575 4.99923 14.2491 4.87617 14.1403 4.53612C14.025 4.17164 14.2341 3.81561 14.6719 3.74703C15.7678 3.57419 16.8685 3.43234 17.9672 3.27734L17.9831 3.37035Z" fill="#A7F0B7"/>
<path d="M11.6354 25.0926C10.8507 25.0926 10.0651 25.0982 9.28039 25.0926C7.66976 25.0775 6.84289 23.6506 7.65007 22.2556C10.5463 17.2237 13.4488 12.1939 16.3576 7.16638C17.1666 5.7667 18.8138 5.75731 19.6248 7.14853C20.251 8.22036 20.8679 9.29689 21.4885 10.3706C21.6273 10.6111 21.6976 10.8882 21.4885 11.0864C21.3243 11.2378 21.1068 11.3179 20.8838 11.309C20.7179 11.2903 20.5294 11.093 20.4301 10.9277C19.8132 9.89433 19.2188 8.84223 18.6151 7.79858C18.2401 7.16074 17.7404 7.15886 17.3738 7.79858C14.4826 12.8086 11.5919 17.8186 8.70195 22.8287C8.34288 23.4515 8.59133 23.8939 9.30383 23.8958C10.8507 23.9005 12.3976 23.8958 13.9435 23.8958C14.7423 23.8958 15.3273 23.5567 15.7248 22.8625C17.4507 19.8565 19.1935 16.8608 20.9138 13.8548C21.0429 13.6066 21.143 13.3444 21.2119 13.0732C21.3235 12.6974 21.587 12.5021 21.9338 12.5791C22.0151 12.5938 22.0922 12.6259 22.1598 12.6733C22.2275 12.7207 22.2841 12.7822 22.3258 12.8536C22.3675 12.925 22.3933 13.0047 22.4014 13.087C22.4094 13.1693 22.3996 13.2524 22.3726 13.3306C22.2811 13.7162 22.1419 14.0889 21.9582 14.44C20.2263 17.4686 18.4845 20.4912 16.7326 23.5078C16.1223 24.5637 15.1969 25.0841 13.9857 25.0973C13.2057 25.0991 12.421 25.0926 11.6354 25.0926Z" fill="#A7F0B7"/>
<path d="M23.9269 25.0923C23.0006 25.0923 22.0753 25.0923 21.15 25.0923C21.0097 25.0967 20.8696 25.0809 20.7338 25.0454C20.6066 25.0138 20.4951 24.9371 20.4201 24.8295C20.3451 24.7219 20.3117 24.5906 20.3259 24.4601C20.3244 24.3228 20.3744 24.1898 20.4661 24.0877C20.5578 23.9855 20.6845 23.9217 20.821 23.9087C20.9488 23.8935 21.0776 23.8882 21.2063 23.8927C23.0113 23.8927 24.8159 23.8927 26.6203 23.8927C27.4125 23.8927 27.661 23.4681 27.2691 22.789C26.3569 21.208 25.4213 19.6383 24.5409 18.0385C24.1659 17.3481 23.5434 17.4702 23.2406 18.0385C22.5253 19.3809 21.7322 20.6819 20.97 21.999C20.9214 22.0924 20.8666 22.1824 20.8059 22.2686C20.7214 22.3907 20.5938 22.4761 20.4489 22.5077C20.304 22.5392 20.1525 22.5145 20.025 22.4386C19.8974 22.3638 19.8019 22.2442 19.757 22.103C19.7122 21.9618 19.7212 21.8089 19.7822 21.6739C19.8164 21.5994 19.8556 21.5272 19.8994 21.4579C20.6831 20.0995 21.4678 18.7415 22.2535 17.3838C23.0728 15.9747 24.7181 15.9822 25.5347 17.3979C26.4853 19.038 27.4397 20.6772 28.3781 22.3249C28.9903 23.4005 28.5206 24.6649 27.3928 25.0022C27.1554 25.0665 26.9103 25.0981 26.6644 25.0961C25.755 25.098 24.8381 25.0923 23.9269 25.0923Z" fill="#A7F0B7"/>
<path d="M18.0056 28.5632C16.8224 28.5632 15.6396 28.5632 14.4571 28.5632C14.0053 28.5632 13.7334 28.3463 13.7212 27.9877C13.709 27.6291 13.9959 27.3681 14.4553 27.3672C16.8215 27.3672 19.1871 27.3672 21.5521 27.3672C21.989 27.3672 22.2703 27.6122 22.2712 27.969C22.2721 28.3257 21.9946 28.5623 21.5531 28.5632C20.3709 28.5651 19.1878 28.5632 18.0056 28.5632Z" fill="#A7F0B7"/>
</svg>
