<svg width="37" height="37" viewBox="0 0 37 37" fill="none" xmlns="http://www.w3.org/2000/svg">
<path d="M18.1752 33.0341C9.94683 33.0341 3.34757 26.3821 3.35156 18.0931C3.35656 10.0081 10.0217 3.32308 18.0734 3.33008C26.3776 3.33608 33.0238 9.93008 33.0188 18.1461C33.0251 20.1015 32.6456 22.0388 31.9021 23.8468C31.1586 25.6548 30.0658 27.2977 28.6864 28.6812C27.307 30.0647 25.6683 31.1615 23.8644 31.9085C22.0606 32.6555 20.1271 33.038 18.1752 33.0341ZM4.65924 18.1731C4.65225 25.5791 10.7025 31.6731 18.0504 31.7191C25.4662 31.7701 31.6552 25.8141 31.7041 18.3191C31.753 10.7661 25.7148 4.65608 18.275 4.64808C10.7344 4.64208 4.66623 10.6691 4.65924 18.1731Z" fill="#A7F0B7"/>
<path d="M11.8389 18.1906C11.8389 15.9436 11.8389 13.6976 11.8389 11.4516C11.8389 11.2456 11.8878 11.1206 12.0785 11.0116C14.0317 9.89292 15.9812 8.76691 17.9271 7.63358C18.0046 7.57977 18.0969 7.55152 18.1912 7.55277C18.2855 7.55403 18.3771 7.58473 18.4531 7.64058C20.3917 8.76925 22.3352 9.89025 24.2838 11.0036C24.3656 11.0399 24.4341 11.1008 24.4798 11.1779C24.5256 11.2549 24.5464 11.3442 24.5393 11.4336C24.5327 15.9362 24.5327 20.4386 24.5393 24.9406C24.5489 25.0194 24.5337 25.0993 24.4957 25.1691C24.4578 25.2388 24.399 25.2949 24.3277 25.3296C22.3632 26.4549 20.4033 27.5882 18.4482 28.7296C18.3704 28.7837 18.2777 28.8121 18.183 28.8109C18.0883 28.8096 17.9964 28.7787 17.9201 28.7226C15.9736 27.5892 14.0224 26.4619 12.0665 25.3406C11.9903 25.3047 11.9274 25.2457 11.8867 25.1719C11.846 25.0981 11.8296 25.0133 11.8399 24.9296C11.8426 22.6829 11.8422 20.4366 11.8389 18.1906ZM12.925 19.1176C12.9147 19.1748 12.9073 19.2326 12.903 19.2906C12.903 20.9906 12.903 22.6906 12.912 24.3906C12.923 24.4555 12.9478 24.5173 12.9846 24.5718C13.0215 24.6263 13.0696 24.6722 13.1256 24.7066C14.7434 25.6579 16.3665 26.5966 17.995 27.5226C18.0538 27.5498 18.1178 27.5638 18.1826 27.5638C18.2474 27.5638 18.3114 27.5498 18.3703 27.5226C19.9984 26.5956 21.6195 25.6536 23.2446 24.7226C23.3175 24.6901 23.3784 24.6357 23.4189 24.5668C23.4593 24.498 23.4773 24.4182 23.4702 24.3386C23.4602 22.6886 23.4702 21.0386 23.4652 19.3866C23.4608 19.3018 23.4518 19.2174 23.4383 19.1336C23.3285 19.1906 23.2466 19.2336 23.1688 19.2736C21.5896 20.1856 20.012 21.0996 18.4362 22.0156C18.3633 22.0676 18.2761 22.0955 18.1866 22.0955C18.0972 22.0955 18.0099 22.0676 17.9371 22.0156C16.839 21.3656 15.724 20.7286 14.615 20.0876C14.065 19.7716 13.5159 19.4576 12.925 19.1176ZM22.9182 11.4706C22.8423 11.4186 22.8114 11.3936 22.7774 11.3706C21.315 10.5336 19.8507 9.68658 18.3942 8.83358C18.2236 8.73358 18.1048 8.76358 17.95 8.85358C16.7033 9.58058 15.4545 10.2996 14.2017 11.0216C13.9591 11.1616 13.7186 11.3066 13.4471 11.4666C14.9174 12.3166 16.3519 13.1286 17.7654 13.9736C18.0808 14.1626 18.2964 14.1596 18.6099 13.9736C20.0223 13.1336 21.4548 12.3156 22.9182 11.4706ZM19.2507 14.8206L23.4433 17.2446V12.3966L19.2507 14.8206ZM12.916 17.2486L17.1185 14.8206L12.916 12.3946V17.2486ZM17.6376 15.7486L13.4381 18.1766L17.6376 20.6016V15.7486ZM22.9282 18.1756L18.7416 15.7586V20.5956L22.9282 18.1756Z" fill="#A7F0B7"/>
<path d="M18.2158 36.2148C8.27653 36.2148 0.196906 28.1278 0.214874 18.1958C0.232842 8.26384 8.28651 0.215844 18.2128 0.214844C28.1392 0.213844 36.2318 8.29884 36.2148 18.2338C36.1978 28.1688 28.1412 36.2138 18.2158 36.2148ZM18.2258 1.49984C9.00823 1.49084 1.51855 8.96585 1.50059 18.1918C1.48262 27.4178 8.95332 34.9018 18.1819 34.9338C27.4105 34.9658 34.9281 27.4558 34.9291 18.2208C34.9301 8.98584 27.4504 1.50984 18.2258 1.49984Z" fill="#A7F0B7"/>
</svg>
