<svg width="37" height="37" viewBox="0 0 37 37" fill="none" xmlns="http://www.w3.org/2000/svg">
<path d="M18.1342 0.214846C28.0502 0.209846 36.1132 8.29385 36.1002 18.2288C36.0872 28.1638 28.0502 36.2048 18.1452 36.2148C8.24017 36.2248 0.165176 28.1298 0.181176 18.1948C0.197176 8.25984 8.22717 0.214846 18.1342 0.214846ZM1.46117 18.2148C1.46617 27.4358 8.93417 34.9148 18.1352 34.9238C27.3362 34.9328 34.8062 27.4468 34.8172 18.2238C34.8282 9.00085 27.3342 1.48285 18.1232 1.49585C8.91217 1.50885 1.45717 8.99684 1.46117 18.2148Z" fill="#A7F0B7"/>
<path d="M16.1149 18.2207C16.1081 18.6199 15.9437 19.0002 15.6577 19.2787C15.3717 19.5573 14.9872 19.7115 14.5879 19.7077C14.1954 19.6979 13.8221 19.536 13.5467 19.2561C13.2713 18.9762 13.1154 18.6003 13.1119 18.2077C13.1143 17.8084 13.2739 17.4261 13.5562 17.1437C13.8384 16.8612 14.2206 16.7014 14.6199 16.6987C15.0196 16.7035 15.4012 16.8662 15.6813 17.1514C15.9615 17.4366 16.1173 17.821 16.1149 18.2207Z" fill="#A7F0B7"/>
<path d="M17.8814 21.2632C17.879 21.6624 17.7192 22.0446 17.4366 22.3266C17.154 22.6086 16.7716 22.7677 16.3724 22.7692C15.9726 22.7637 15.5911 22.601 15.3104 22.3164C15.0297 22.0317 14.8723 21.648 14.8724 21.2482C14.8821 20.8562 15.0424 20.483 15.32 20.2061C15.5977 19.9292 15.9713 19.7699 16.3634 19.7612C16.763 19.762 17.1462 19.92 17.4303 20.201C17.7143 20.4821 17.8764 20.8637 17.8814 21.2632Z" fill="#A7F0B7"/>
<path d="M19.9116 22.762C19.5131 22.7573 19.1325 22.5961 18.8519 22.3132C18.5713 22.0303 18.4131 21.6485 18.4116 21.25C18.4178 20.8577 18.575 20.483 18.8505 20.2036C19.1259 19.9242 19.4984 19.7618 19.8906 19.75C20.2899 19.7523 20.6726 19.9103 20.9573 20.1904C21.2419 20.4706 21.406 20.8507 21.4146 21.25C21.412 21.6487 21.2531 22.0304 20.972 22.3131C20.691 22.5959 20.3102 22.757 19.9116 22.762Z" fill="#A7F0B7"/>
<path d="M16.3813 16.6299C16.1837 16.6317 15.9876 16.5945 15.8044 16.5203C15.6212 16.4461 15.4544 16.3364 15.3137 16.1976C15.173 16.0588 15.0612 15.8935 14.9845 15.7113C14.9079 15.5291 14.8681 15.3335 14.8673 15.1359C14.8725 14.7368 15.034 14.3556 15.3171 14.0743C15.6001 13.7929 15.9822 13.6337 16.3813 13.6309C16.7805 13.6361 17.1613 13.7994 17.4404 14.0848C17.7195 14.3703 17.874 14.7547 17.8703 15.1539C17.8664 15.5463 17.7078 15.9214 17.429 16.1978C17.1503 16.4741 16.7738 16.6294 16.3813 16.6299Z" fill="#A7F0B7"/>
<path d="M21.6463 19.6809C21.2549 19.6775 20.8805 19.5203 20.6039 19.2432C20.3274 18.9661 20.1709 18.5914 20.1683 18.1999C20.1678 17.801 20.3253 17.4182 20.6065 17.1351C20.8876 16.8521 21.2694 16.6921 21.6683 16.6899C22.0662 16.6899 22.4477 16.848 22.729 17.1293C23.0103 17.4106 23.1683 17.7921 23.1683 18.1899C23.1672 18.388 23.1268 18.5839 23.0495 18.7663C22.9722 18.9487 22.8596 19.114 22.7181 19.2526C22.5765 19.3912 22.409 19.5005 22.225 19.574C22.0411 19.6475 21.8444 19.6838 21.6463 19.6809Z" fill="#A7F0B7"/>
<path d="M19.8911 16.6149C19.6937 16.6162 19.4981 16.5783 19.3155 16.5034C19.1329 16.4285 18.967 16.318 18.8275 16.1785C18.6879 16.0389 18.5775 15.873 18.5026 15.6904C18.4276 15.5079 18.3898 15.3122 18.3911 15.1149C18.3995 14.7174 18.5637 14.3392 18.8485 14.0618C19.1332 13.7843 19.5156 13.6299 19.9131 13.6319C20.304 13.6381 20.6769 13.7975 20.9516 14.0758C21.2262 14.354 21.3808 14.7289 21.3821 15.1199C21.3841 15.3164 21.3469 15.5114 21.2727 15.6934C21.1986 15.8754 21.0889 16.0408 20.9501 16.18C20.8113 16.3192 20.6462 16.4293 20.4643 16.504C20.2825 16.5786 20.0876 16.6163 19.8911 16.6149Z" fill="#A7F0B7"/>
<path d="M24.2373 15.154C24.2379 15.2705 24.2152 15.3859 24.1707 15.4935C24.1262 15.6012 24.0607 15.6989 23.9781 15.781C23.8954 15.8631 23.7973 15.9279 23.6893 15.9717C23.5814 16.0154 23.4658 16.0373 23.3493 16.036C23.1212 16.0267 22.9051 15.931 22.7449 15.7683C22.5847 15.6057 22.4922 15.3882 22.4863 15.16C22.4909 14.932 22.5818 14.7143 22.7407 14.5507C22.8996 14.3872 23.1146 14.2901 23.3423 14.279C23.4588 14.2767 23.5746 14.2977 23.6829 14.3406C23.7911 14.3835 23.8898 14.4476 23.9731 14.529C24.0564 14.6104 24.1227 14.7076 24.168 14.8149C24.2134 14.9222 24.237 15.0375 24.2373 15.154Z" fill="#A7F0B7"/>
<path d="M24.2495 21.2289C24.2502 21.3421 24.2283 21.4542 24.1852 21.5587C24.142 21.6633 24.0784 21.7582 23.9982 21.8379C23.9179 21.9176 23.8226 21.9805 23.7177 22.0229C23.6129 22.0653 23.5006 22.0864 23.3875 22.0849C23.271 22.087 23.1553 22.0655 23.0472 22.0219C22.9392 21.9782 22.841 21.9132 22.7586 21.8308C22.6762 21.7484 22.6113 21.6503 22.5676 21.5422C22.5239 21.4342 22.5025 21.3185 22.5045 21.2019C22.5099 20.9735 22.6035 20.7559 22.7657 20.5949C22.9278 20.4338 23.146 20.3418 23.3745 20.3379C23.4911 20.3367 23.6068 20.359 23.7146 20.4035C23.8224 20.4481 23.9201 20.5139 24.0018 20.5971C24.0835 20.6803 24.1475 20.7792 24.1901 20.8877C24.2327 20.9963 24.2529 21.1124 24.2495 21.2289Z" fill="#A7F0B7"/>
<path d="M12.0413 21.2526C12.0365 21.0244 12.1223 20.8036 12.2799 20.6385C12.4375 20.4734 12.6541 20.3774 12.8823 20.3716C12.9987 20.3675 13.1148 20.3865 13.2238 20.4276C13.3328 20.4686 13.4325 20.5309 13.5173 20.6108C13.602 20.6907 13.6701 20.7867 13.7174 20.8931C13.7648 20.9995 13.7906 21.1142 13.7933 21.2306C13.7895 21.4659 13.6944 21.6906 13.5282 21.8571C13.362 22.0237 13.1376 22.1193 12.9023 22.1236C12.6741 22.1177 12.457 22.0238 12.2966 21.8614C12.1361 21.6991 12.0446 21.4809 12.0413 21.2526Z" fill="#A7F0B7"/>
<path d="M18.1167 13.0148C17.9998 13.0161 17.8839 12.9934 17.7762 12.9481C17.6684 12.9029 17.571 12.836 17.4901 12.7517C17.4091 12.6674 17.3463 12.5674 17.3055 12.4578C17.2647 12.3483 17.2467 12.2316 17.2527 12.1148C17.2537 12.0016 17.2773 11.8897 17.3221 11.7856C17.3669 11.6816 17.432 11.5875 17.5135 11.509C17.5951 11.4304 17.6915 11.3688 17.7972 11.3279C17.9028 11.2871 18.0155 11.2677 18.1287 11.2708C18.3574 11.2713 18.5767 11.3613 18.7399 11.5214C18.903 11.6816 18.997 11.8993 19.0017 12.1278C19.0035 12.2446 18.9818 12.3606 18.938 12.4689C18.8941 12.5771 18.829 12.6755 18.7465 12.7582C18.664 12.8409 18.5658 12.9062 18.4576 12.9503C18.3494 12.9944 18.2335 13.0163 18.1167 13.0148Z" fill="#A7F0B7"/>
<path d="M12.9163 16.0527C12.7999 16.0568 12.6839 16.0372 12.5754 15.9949C12.4668 15.9527 12.368 15.8888 12.285 15.8071C12.202 15.7254 12.1365 15.6276 12.0926 15.5197C12.0486 15.4119 12.0271 15.2962 12.0293 15.1797C12.0277 14.9511 12.116 14.731 12.2752 14.567C12.4344 14.4029 12.6518 14.308 12.8803 14.3027C13.1155 14.3022 13.3414 14.3946 13.5089 14.5597C13.6763 14.7249 13.7717 14.9496 13.7743 15.1847C13.7749 15.4134 13.685 15.633 13.5242 15.7956C13.3635 15.9582 13.145 16.0506 12.9163 16.0527Z" fill="#A7F0B7"/>
<path d="M18.9582 24.246C18.9625 24.3624 18.9428 24.4785 18.9004 24.5871C18.858 24.6956 18.7937 24.7943 18.7116 24.877C18.6295 24.9597 18.5312 25.0247 18.423 25.0678C18.3147 25.111 18.1987 25.1315 18.0822 25.128C17.969 25.1289 17.8568 25.1073 17.7519 25.0645C17.6471 25.0217 17.5519 24.9585 17.4717 24.8786C17.3915 24.7987 17.328 24.7037 17.2848 24.599C17.2416 24.4943 17.2197 24.3822 17.2202 24.269C17.2188 24.1524 17.2404 24.0368 17.284 23.9287C17.3276 23.8206 17.3921 23.7222 17.474 23.6392C17.5558 23.5563 17.6533 23.4904 17.7608 23.4453C17.8683 23.4003 17.9837 23.3771 18.1002 23.377C18.3286 23.3804 18.5465 23.4734 18.707 23.6359C18.8675 23.7984 18.9577 24.0175 18.9582 24.246Z" fill="#A7F0B7"/>
<path d="M14.2102 24.2681C14.406 24.2658 14.5952 24.3394 14.738 24.4734C14.8808 24.6074 14.9661 24.7915 14.9762 24.9871C14.9807 25.1827 14.9095 25.3724 14.7774 25.5167C14.6452 25.6609 14.4624 25.7485 14.2672 25.7611C14.1672 25.7661 14.0671 25.7508 13.9731 25.7162C13.8791 25.6815 13.7931 25.6282 13.7203 25.5594C13.6474 25.4907 13.5892 25.4079 13.5491 25.3161C13.5091 25.2243 13.488 25.1253 13.4872 25.0251C13.4842 24.8293 13.5584 24.6401 13.6936 24.4985C13.8289 24.3569 14.0145 24.2741 14.2102 24.2681Z" fill="#A7F0B7"/>
<path d="M22.081 25.7501C21.8853 25.7467 21.6986 25.667 21.5608 25.5281C21.4229 25.3891 21.3448 25.2018 21.343 25.0061C21.3397 24.8103 21.4135 24.6211 21.5483 24.4792C21.6831 24.3372 21.8683 24.2539 22.064 24.2471C22.1643 24.2464 22.2637 24.2657 22.3565 24.3038C22.4492 24.342 22.5335 24.3982 22.6043 24.4692C22.6751 24.5402 22.7311 24.6246 22.769 24.7175C22.8069 24.8103 22.8259 24.9098 22.825 25.0101C22.8209 25.2057 22.7411 25.3922 22.6023 25.5302C22.4635 25.6682 22.2767 25.747 22.081 25.7501Z" fill="#A7F0B7"/>
<path d="M26.7235 18.1999C26.7196 18.3951 26.6395 18.5809 26.5002 18.7178C26.361 18.8546 26.1737 18.9314 25.9785 18.9319C25.7831 18.9295 25.5964 18.85 25.4593 18.7107C25.3222 18.5713 25.2457 18.3834 25.2465 18.1879C25.2451 18.0877 25.2641 17.9883 25.3022 17.8956C25.3403 17.8029 25.3968 17.7189 25.4684 17.6487C25.5399 17.5785 25.6249 17.5236 25.7182 17.4872C25.8116 17.4508 25.9114 17.4337 26.0115 17.4369C26.2071 17.4437 26.392 17.5279 26.5255 17.671C26.6591 17.8141 26.7303 18.0043 26.7235 18.1999Z" fill="#A7F0B7"/>
<path d="M10.2814 17.4809C10.378 17.4775 10.4743 17.4934 10.5647 17.5277C10.6551 17.562 10.7377 17.614 10.8077 17.6807C10.8777 17.7475 10.9336 17.8275 10.9722 17.9161C11.0108 18.0048 11.0312 18.1003 11.0324 18.1969C11.0379 18.2932 11.024 18.3895 10.9915 18.4803C10.9591 18.5711 10.9087 18.6544 10.8434 18.7253C10.7781 18.7962 10.6992 18.8532 10.6114 18.893C10.5236 18.9328 10.4287 18.9545 10.3324 18.9569C10.2324 18.9637 10.1322 18.9497 10.038 18.9157C9.94377 18.8818 9.85764 18.8286 9.78506 18.7596C9.71248 18.6906 9.65503 18.6072 9.61635 18.5149C9.57767 18.4225 9.5586 18.3231 9.56036 18.2229C9.55823 18.1267 9.57527 18.031 9.61049 17.9414C9.64571 17.8517 9.69841 17.77 9.76551 17.701C9.8326 17.6319 9.91276 17.5769 10.0013 17.5391C10.0899 17.5014 10.1851 17.4816 10.2814 17.4809Z" fill="#A7F0B7"/>
<path d="M14.9402 11.3837C14.944 11.4802 14.9286 11.5764 14.895 11.6668C14.8614 11.7573 14.8102 11.8402 14.7443 11.9107C14.6785 11.9813 14.5994 12.0381 14.5115 12.0779C14.4236 12.1177 14.3287 12.1398 14.2323 12.1427C14.1324 12.1473 14.0326 12.1312 13.9392 12.0956C13.8458 12.0599 13.7608 12.0054 13.6894 11.9354C13.618 11.8654 13.5618 11.7814 13.5242 11.6888C13.4867 11.5961 13.4687 11.4967 13.4713 11.3967C13.4703 11.3004 13.4884 11.2047 13.5246 11.1154C13.5607 11.026 13.6141 10.9447 13.6817 10.876C13.7494 10.8074 13.8299 10.7527 13.9187 10.7153C14.0075 10.6778 14.1029 10.6583 14.1992 10.6577C14.3937 10.6561 14.5808 10.7316 14.7197 10.8677C14.8586 11.0038 14.9379 11.1893 14.9402 11.3837Z" fill="#A7F0B7"/>
<path d="M22.7911 11.3915C22.7912 11.4884 22.772 11.5843 22.7346 11.6736C22.6972 11.7629 22.6424 11.8438 22.5732 11.9116C22.5041 11.9794 22.4221 12.0328 22.3321 12.0685C22.2421 12.1042 22.1459 12.1215 22.0491 12.1195C21.9522 12.1214 21.8559 12.104 21.7657 12.0685C21.6756 12.0329 21.5934 11.9799 21.5238 11.9124C21.4543 11.8449 21.3988 11.7643 21.3606 11.6752C21.3223 11.5862 21.3021 11.4904 21.3011 11.3935C21.2998 11.2933 21.3189 11.1938 21.3572 11.1012C21.3955 11.0085 21.4523 10.9247 21.524 10.8546C21.5957 10.7846 21.681 10.7298 21.7745 10.6937C21.868 10.6576 21.9679 10.6409 22.0681 10.6445C22.1648 10.6453 22.2605 10.6653 22.3494 10.7034C22.4384 10.7416 22.5188 10.797 22.5861 10.8665C22.6534 10.936 22.7062 11.0183 22.7414 11.1084C22.7766 11.1986 22.7935 11.2948 22.7911 11.3915Z" fill="#A7F0B7"/>
<path d="M18.1554 4.06382C17.9871 4.06843 17.8238 4.00657 17.7009 3.89165C17.5779 3.77673 17.5051 3.61799 17.4984 3.44982C17.4913 3.28163 17.5509 3.11745 17.6641 2.99294C17.7774 2.86842 17.9353 2.79363 18.1034 2.78482C18.1897 2.77968 18.2762 2.79209 18.3576 2.82132C18.4391 2.85054 18.5137 2.89597 18.5771 2.95485C18.6404 3.01373 18.6912 3.08486 18.7263 3.16391C18.7614 3.24297 18.7802 3.32833 18.7814 3.41482C18.7838 3.58372 18.7193 3.74672 18.6021 3.86829C18.4848 3.98986 18.3242 4.06014 18.1554 4.06382Z" fill="#A7F0B7"/>
<path d="M32.6491 13.1586C32.6475 13.3269 32.5796 13.4879 32.4602 13.6066C32.3408 13.7252 32.1794 13.7921 32.0111 13.7926C31.9243 13.7928 31.8384 13.7754 31.7586 13.7415C31.6787 13.7075 31.6066 13.6577 31.5466 13.5951C31.4866 13.5324 31.4399 13.4583 31.4094 13.377C31.3788 13.2958 31.3651 13.2093 31.3691 13.1226C31.3748 12.9541 31.4469 12.7948 31.5695 12.6792C31.6922 12.5637 31.8556 12.5013 32.0241 12.5056C32.1923 12.513 32.3511 12.5851 32.4675 12.7067C32.5839 12.8284 32.649 12.9902 32.6491 13.1586Z" fill="#A7F0B7"/>
<path d="M23.8304 4.29695C23.8347 4.46533 23.7723 4.62859 23.6567 4.7511C23.5411 4.87362 23.3817 4.94546 23.2134 4.95095C23.0452 4.95777 22.881 4.89814 22.7564 4.78494C22.6318 4.67173 22.5567 4.51405 22.5474 4.34595C22.5422 4.25939 22.5547 4.1727 22.5842 4.09113C22.6136 4.00957 22.6593 3.93484 22.7185 3.87151C22.7777 3.80817 22.8492 3.75755 22.9286 3.72273C23.008 3.68791 23.0937 3.66961 23.1804 3.66895C23.3487 3.66984 23.5103 3.73563 23.6313 3.8526C23.7524 3.96957 23.8237 4.12873 23.8304 4.29695Z" fill="#A7F0B7"/>
<path d="M13.7315 4.34009C13.7237 4.50818 13.6501 4.66646 13.5267 4.78077C13.4032 4.89508 13.2397 4.95626 13.0715 4.95109C12.9032 4.94715 12.7432 4.87683 12.6265 4.75544C12.5098 4.63406 12.4458 4.47146 12.4485 4.30309C12.4512 4.21649 12.4711 4.13129 12.507 4.05244C12.5429 3.97359 12.5941 3.90265 12.6576 3.84376C12.7212 3.78487 12.7958 3.73919 12.8771 3.70937C12.9585 3.67956 13.045 3.66621 13.1315 3.67009C13.2995 3.68041 13.4567 3.75652 13.569 3.88193C13.6813 4.00734 13.7397 4.17195 13.7315 4.34009Z" fill="#A7F0B7"/>
<path d="M3.38131 17.5669C3.54976 17.5664 3.7116 17.6323 3.83164 17.7505C3.95168 17.8687 4.02021 18.0295 4.02231 18.1979C4.02438 18.2846 4.00878 18.3709 3.97647 18.4514C3.94416 18.532 3.89581 18.6051 3.83435 18.6664C3.7729 18.7276 3.69963 18.7758 3.619 18.8078C3.53837 18.8399 3.45206 18.8552 3.36531 18.8529C3.19688 18.8479 3.03723 18.7766 2.92112 18.6545C2.805 18.5324 2.74181 18.3694 2.74532 18.2009C2.74611 18.0326 2.81343 17.8715 2.93259 17.7528C3.05175 17.634 3.21306 17.5672 3.38131 17.5669Z" fill="#A7F0B7"/>
<path d="M32.8904 17.5669C33.0589 17.5661 33.2208 17.6318 33.341 17.7498C33.4613 17.8678 33.53 18.0285 33.5324 18.1969C33.5346 18.2836 33.5191 18.3699 33.487 18.4505C33.4548 18.5311 33.4065 18.6043 33.3452 18.6657C33.2838 18.727 33.2106 18.7753 33.13 18.8074C33.0494 18.8396 32.9632 18.8551 32.8764 18.8529C32.7082 18.8482 32.5486 18.7773 32.4323 18.6556C32.316 18.5339 32.2524 18.3712 32.2554 18.2029C32.2559 18.0346 32.323 17.8732 32.4419 17.7541C32.5609 17.635 32.7221 17.5677 32.8904 17.5669Z" fill="#A7F0B7"/>
<path d="M4.28125 22.627C4.44959 22.6305 4.60981 22.7001 4.72718 22.8208C4.84454 22.9415 4.9096 23.1037 4.90825 23.272C4.90907 23.4401 4.84378 23.6017 4.72647 23.722C4.60916 23.8423 4.44925 23.9116 4.28125 23.915C4.19463 23.914 4.10907 23.8958 4.02949 23.8616C3.94991 23.8274 3.87789 23.7777 3.81758 23.7155C3.75726 23.6534 3.70983 23.5799 3.67802 23.4993C3.64622 23.4187 3.63066 23.3327 3.63225 23.246C3.63748 23.0783 3.70848 22.9194 3.82991 22.8036C3.95135 22.6877 4.11346 22.6243 4.28125 22.627Z" fill="#A7F0B7"/>
<path d="M31.9885 23.9146C31.8202 23.9089 31.661 23.8372 31.5452 23.715C31.4294 23.5928 31.3663 23.43 31.3695 23.2616C31.37 23.1749 31.3882 23.0892 31.423 23.0097C31.4578 22.9302 31.5084 22.8587 31.5718 22.7994C31.6351 22.7402 31.7099 22.6945 31.7915 22.6651C31.8732 22.6357 31.9599 22.6233 32.0465 22.6286C32.2142 22.639 32.3711 22.7148 32.4833 22.8398C32.5956 22.9647 32.6542 23.1288 32.6465 23.2966C32.637 23.4644 32.5634 23.6221 32.441 23.7371C32.3185 23.8521 32.1565 23.9157 31.9885 23.9146Z" fill="#A7F0B7"/>
<path d="M18.1513 33.6361C17.9829 33.6401 17.8197 33.5774 17.6974 33.4616C17.5751 33.3459 17.5035 33.1864 17.4983 33.0181C17.495 32.9314 17.5094 32.8449 17.5407 32.7639C17.572 32.683 17.6195 32.6093 17.6802 32.5473C17.741 32.4854 17.8137 32.4364 17.894 32.4035C17.9743 32.3707 18.0605 32.3545 18.1473 32.3561C18.3156 32.3576 18.4766 32.4255 18.5952 32.5449C18.7139 32.6643 18.7807 32.8257 18.7813 32.9941C18.7821 33.1625 18.7163 33.3245 18.5983 33.4447C18.4804 33.5649 18.3197 33.6337 18.1513 33.6361Z" fill="#A7F0B7"/>
<path d="M13.0985 31.4689C13.2669 31.4702 13.428 31.538 13.5467 31.6574C13.6655 31.7769 13.7322 31.9384 13.7325 32.1069C13.7328 32.1936 13.7156 32.2795 13.6818 32.3593C13.6481 32.4392 13.5985 32.5114 13.5361 32.5716C13.4737 32.6318 13.3997 32.6787 13.3186 32.7095C13.2376 32.7403 13.1511 32.7544 13.0645 32.7509C12.8963 32.7411 12.7384 32.6668 12.6236 32.5435C12.5089 32.4202 12.4461 32.2573 12.4485 32.0889C12.4532 31.9207 12.5241 31.7612 12.6459 31.6451C12.7676 31.529 12.9303 31.4656 13.0985 31.4689Z" fill="#A7F0B7"/>
<path d="M23.8304 32.1149C23.8263 32.2831 23.7577 32.4433 23.6387 32.5623C23.5197 32.6812 23.3596 32.7499 23.1914 32.7539C23.1046 32.7547 23.0186 32.7378 22.9386 32.7042C22.8586 32.6707 22.7863 32.6212 22.7261 32.5588C22.6658 32.4964 22.6189 32.4224 22.5882 32.3412C22.5574 32.2601 22.5436 32.1736 22.5474 32.0869C22.5536 31.9187 22.626 31.7597 22.7489 31.6445C22.8717 31.5293 23.0351 31.4673 23.2034 31.4719C23.3715 31.4748 23.5317 31.544 23.6492 31.6644C23.7666 31.7848 23.8317 31.9467 23.8304 32.1149Z" fill="#A7F0B7"/>
<path d="M4.90928 13.1509C4.90983 13.3192 4.84401 13.481 4.72608 13.6012C4.60816 13.7214 4.44763 13.7902 4.27928 13.7929C4.11099 13.7956 3.94843 13.7317 3.82691 13.6153C3.7054 13.4988 3.63474 13.3391 3.63028 13.1709C3.62882 13.0841 3.64463 12.998 3.67678 12.9174C3.70893 12.8369 3.75678 12.7635 3.81755 12.7016C3.87832 12.6398 3.95079 12.5906 4.03075 12.557C4.1107 12.5234 4.19655 12.506 4.28328 12.5059C4.45153 12.5093 4.61165 12.5789 4.72886 12.6997C4.84606 12.8205 4.9109 12.9826 4.90928 13.1509Z" fill="#A7F0B7"/>
<path d="M16.2159 3.65789C16.2115 3.82594 16.1422 3.98576 16.0225 4.10379C15.9028 4.22182 15.742 4.28888 15.5739 4.29089C15.4873 4.28935 15.4019 4.27058 15.3226 4.23569C15.2433 4.2008 15.1717 4.15048 15.112 4.08765C15.0524 4.02483 15.0058 3.95077 14.9751 3.86977C14.9443 3.78878 14.93 3.70247 14.9329 3.61589C14.9417 3.44839 15.0165 3.29119 15.141 3.17873C15.2654 3.06627 15.4294 3.00772 15.5969 3.01589C15.68 3.01638 15.7622 3.0335 15.8386 3.06623C15.915 3.09895 15.984 3.14664 16.0417 3.20646C16.0994 3.26628 16.1445 3.33704 16.1744 3.41457C16.2044 3.49209 16.2185 3.57482 16.2159 3.65789Z" fill="#A7F0B7"/>
<path d="M21.3462 3.63288C21.3474 3.80112 21.2838 3.96338 21.1685 4.08593C21.0532 4.20847 20.8952 4.28188 20.7272 4.29088C20.6405 4.29302 20.5543 4.27777 20.4736 4.24605C20.393 4.21433 20.3195 4.16678 20.2575 4.10619C20.1955 4.04561 20.1463 3.97322 20.1128 3.8933C20.0792 3.81338 20.062 3.72755 20.0622 3.64088C20.0615 3.55754 20.0775 3.47491 20.1093 3.39788C20.1411 3.32085 20.1881 3.25099 20.2474 3.19244C20.3067 3.13388 20.3772 3.08782 20.4546 3.05697C20.532 3.02613 20.6148 3.01113 20.6982 3.01288C20.7815 3.01088 20.8643 3.02536 20.942 3.05547C21.0197 3.08557 21.0907 3.13073 21.1509 3.18833C21.2111 3.24593 21.2593 3.31485 21.2928 3.39114C21.3264 3.46742 21.3445 3.54957 21.3462 3.63288Z" fill="#A7F0B7"/>
<path d="M7.48134 27.7239C7.48163 27.8072 7.46523 27.8896 7.43311 27.9664C7.40098 28.0433 7.35379 28.1129 7.29431 28.1711C7.23484 28.2294 7.16429 28.2751 7.08683 28.3057C7.00937 28.3362 6.92658 28.3509 6.84334 28.3489C6.67539 28.3497 6.51382 28.2846 6.39338 28.1675C6.27295 28.0505 6.20327 27.8908 6.19934 27.7229C6.19947 27.6365 6.21666 27.5509 6.24993 27.4711C6.28319 27.3913 6.33187 27.3189 6.39319 27.2579C6.4545 27.197 6.52724 27.1487 6.60723 27.1159C6.68722 27.0832 6.77289 27.0665 6.85934 27.0669C7.02703 27.077 7.18459 27.1506 7.30009 27.2726C7.41558 27.3946 7.48038 27.5559 7.48134 27.7239Z" fill="#A7F0B7"/>
<path d="M20.7042 33.406C20.6209 33.4085 20.538 33.3943 20.4604 33.3643C20.3827 33.3343 20.3119 33.289 20.252 33.2311C20.1922 33.1732 20.1445 33.1039 20.1119 33.0272C20.0793 32.9506 20.0624 32.8683 20.0622 32.785C20.0612 32.6983 20.0777 32.6123 20.1105 32.5321C20.1433 32.4519 20.1918 32.3791 20.2533 32.3179C20.3147 32.2568 20.3877 32.2086 20.4681 32.1761C20.5485 32.1437 20.6345 32.1276 20.7212 32.129C20.8892 32.1359 21.048 32.2076 21.1645 32.3289C21.281 32.4502 21.3461 32.6118 21.3462 32.78C21.3454 32.8633 21.3281 32.9457 21.2954 33.0223C21.2627 33.099 21.2151 33.1684 21.1554 33.2266C21.0957 33.2847 21.0252 33.3305 20.9477 33.3613C20.8703 33.3921 20.7875 33.4073 20.7042 33.406Z" fill="#A7F0B7"/>
<path d="M9.30207 6.897C9.29249 7.07147 9.21443 7.23512 9.08484 7.35235C8.95526 7.46957 8.78463 7.5309 8.61007 7.523C8.52686 7.51807 8.44547 7.4966 8.37066 7.45984C8.29585 7.42309 8.22911 7.37178 8.17436 7.30893C8.11962 7.24608 8.07795 7.17295 8.0518 7.0938C8.02565 7.01466 8.01554 6.93109 8.02207 6.848C8.03137 6.68044 8.10562 6.52312 8.22903 6.40941C8.35245 6.2957 8.51531 6.23457 8.68307 6.23899C8.85056 6.24942 9.0078 6.32326 9.12279 6.44549C9.23778 6.56773 9.30188 6.72918 9.30207 6.897Z" fill="#A7F0B7"/>
<path d="M28.2574 6.90559C28.2566 6.98887 28.239 7.07114 28.2059 7.14756C28.1728 7.22397 28.1247 7.29299 28.0645 7.35057C28.0043 7.40814 27.9333 7.4531 27.8554 7.48282C27.7776 7.51253 27.6947 7.5264 27.6114 7.52359C27.4438 7.51634 27.2851 7.44589 27.1673 7.32641C27.0495 7.20694 26.9813 7.04731 26.9764 6.87959C26.9785 6.79296 26.9977 6.70759 27.0329 6.6284C27.0681 6.54922 27.1186 6.47778 27.1815 6.4182C27.2445 6.35862 27.3186 6.31208 27.3995 6.28126C27.4805 6.25043 27.5668 6.23593 27.6534 6.23859C27.8212 6.24917 27.9782 6.32479 28.091 6.44937C28.2038 6.57395 28.2635 6.73763 28.2574 6.90559Z" fill="#A7F0B7"/>
<path d="M15.5572 32.1289C15.7254 32.1271 15.8878 32.1903 16.0105 32.3052C16.1333 32.4202 16.207 32.578 16.2162 32.7459C16.2211 32.8289 16.2093 32.912 16.1816 32.9903C16.1539 33.0686 16.1109 33.1406 16.055 33.2021C15.9991 33.2636 15.9315 33.3133 15.8562 33.3483C15.7808 33.3833 15.6992 33.4029 15.6162 33.4059C15.5298 33.4122 15.4431 33.4008 15.3613 33.3722C15.2796 33.3437 15.2045 33.2987 15.1408 33.2401C15.0771 33.1814 15.026 33.1103 14.9909 33.0312C14.9557 32.952 14.9371 32.8665 14.9362 32.7799C14.9358 32.6123 15.0002 32.451 15.1159 32.3296C15.2316 32.2083 15.3897 32.1364 15.5572 32.1289Z" fill="#A7F0B7"/>
<path d="M7.48111 8.71502C7.47541 8.88287 7.40631 9.04232 7.28774 9.16126C7.16917 9.2802 7.00994 9.34979 6.84211 9.35602C6.75557 9.35434 6.67022 9.33552 6.591 9.30066C6.51178 9.2658 6.44025 9.21558 6.38055 9.15291C6.32086 9.09023 6.27417 9.01635 6.2432 8.93552C6.21223 8.8547 6.19758 8.76854 6.20011 8.68202C6.20866 8.5142 6.28247 8.35637 6.40578 8.24222C6.52909 8.12806 6.69213 8.06663 6.86011 8.07102C6.94339 8.07179 7.02569 8.08914 7.10219 8.12206C7.17869 8.15498 7.24787 8.20282 7.30568 8.26277C7.36349 8.32272 7.40878 8.3936 7.4389 8.47125C7.46902 8.5489 7.48337 8.63177 7.48111 8.71502Z" fill="#A7F0B7"/>
<path d="M33.3031 15.6456C33.305 15.7289 33.2901 15.8118 33.2594 15.8893C33.2287 15.9667 33.1827 16.0373 33.1242 16.0967C33.0658 16.1561 32.996 16.2031 32.919 16.2351C32.842 16.267 32.7594 16.2832 32.6761 16.2826C32.5894 16.2824 32.5036 16.2648 32.4237 16.2309C32.3439 16.197 32.2717 16.1475 32.2113 16.0852C32.1509 16.023 32.1036 15.9492 32.0721 15.8684C32.0407 15.7876 32.0257 15.7013 32.0281 15.6146C32.0366 15.4467 32.1097 15.2886 32.2322 15.1734C32.3547 15.0582 32.517 14.9949 32.6851 14.9966C32.7684 14.9983 32.8505 15.0165 32.9268 15.0501C33.003 15.0836 33.0718 15.132 33.1293 15.1924C33.1868 15.2527 33.2317 15.3238 33.2615 15.4016C33.2914 15.4794 33.3055 15.5623 33.3031 15.6456Z" fill="#A7F0B7"/>
<path d="M4.25022 20.7941C4.24455 20.962 4.17414 21.1213 4.05374 21.2385C3.93334 21.3557 3.77227 21.4219 3.60422 21.4231C3.5175 21.4225 3.43183 21.4041 3.35248 21.3691C3.27313 21.3341 3.20179 21.2832 3.14286 21.2196C3.08392 21.156 3.03864 21.081 3.00981 20.9992C2.98098 20.9174 2.96921 20.8306 2.97522 20.7441C2.97738 20.6608 2.99619 20.5788 3.03053 20.5029C3.06488 20.427 3.11408 20.3588 3.17522 20.3022C3.23635 20.2457 3.3082 20.2019 3.38652 20.1735C3.46483 20.1452 3.54804 20.1328 3.63122 20.1371C3.79931 20.1453 3.95767 20.2184 4.07308 20.3409C4.18849 20.4634 4.25197 20.6258 4.25022 20.7941Z" fill="#A7F0B7"/>
<path d="M33.3031 20.7853C33.304 20.8686 33.2885 20.9512 33.2573 21.0284C33.2261 21.1057 33.18 21.176 33.1215 21.2353C33.063 21.2946 32.9934 21.3417 32.9166 21.374C32.8398 21.4063 32.7574 21.423 32.6741 21.4233C32.506 21.4218 32.3449 21.3555 32.2245 21.2381C32.1042 21.1207 32.0338 20.9613 32.0281 20.7933C32.0272 20.7066 32.0436 20.6206 32.0764 20.5404C32.1092 20.4602 32.1578 20.3874 32.2192 20.3262C32.2806 20.2651 32.3537 20.2169 32.434 20.1844C32.5144 20.152 32.6005 20.1359 32.6871 20.1373C32.7704 20.1383 32.8527 20.156 32.9291 20.1893C33.0055 20.2226 33.0744 20.2709 33.1318 20.3313C33.1893 20.3917 33.234 20.463 33.2634 20.541C33.2928 20.6189 33.3063 20.702 33.3031 20.7853Z" fill="#A7F0B7"/>
<path d="M4.25052 15.6397C4.24877 15.8078 4.18197 15.9687 4.06412 16.0886C3.94628 16.2085 3.78657 16.278 3.61852 16.2827C3.53191 16.2855 3.44567 16.2702 3.36532 16.2378C3.28496 16.2053 3.21225 16.1565 3.15183 16.0944C3.09141 16.0323 3.04461 15.9582 3.01442 15.877C2.98424 15.7958 2.97133 15.7092 2.97652 15.6227C2.97704 15.5393 2.99408 15.457 3.02666 15.3803C3.05924 15.3036 3.10672 15.2341 3.16634 15.1759C3.22595 15.1176 3.29653 15.0718 3.37398 15.0411C3.45142 15.0103 3.5342 14.9952 3.61752 14.9967C3.78558 15.0016 3.94526 15.0712 4.06321 15.191C4.18116 15.3108 4.24827 15.4716 4.25052 15.6397Z" fill="#A7F0B7"/>
<path d="M30.081 27.6959C30.0842 27.8639 30.0214 28.0265 29.906 28.1486C29.7906 28.2707 29.6319 28.3427 29.464 28.3489C29.3808 28.3543 29.2973 28.343 29.2186 28.3155C29.1398 28.2881 29.0674 28.2451 29.0056 28.1892C28.9437 28.1332 28.8938 28.0654 28.8586 27.9898C28.8235 27.9142 28.8039 27.8323 28.801 27.7489C28.7942 27.5743 28.8571 27.4041 28.9758 27.2758C29.0945 27.1476 29.2593 27.0717 29.434 27.0649C29.6021 27.0671 29.7631 27.1338 29.8835 27.2513C30.0039 27.3687 30.0746 27.5279 30.081 27.6959Z" fill="#A7F0B7"/>
<path d="M28.2574 29.539C28.2572 29.707 28.1913 29.8682 28.0737 29.9881C27.9562 30.1081 27.7964 30.1773 27.6284 30.181C27.4604 30.1802 27.2991 30.1149 27.1778 29.9986C27.0564 29.8823 26.9844 29.7239 26.9764 29.556C26.977 29.3811 27.0467 29.2135 27.1703 29.0899C27.294 28.9662 27.4616 28.8965 27.6364 28.896C27.7198 28.8962 27.8023 28.9132 27.8789 28.9458C27.9556 28.9785 28.025 29.0262 28.0829 29.0862C28.1408 29.1462 28.1861 29.2171 28.2161 29.2949C28.246 29.3727 28.2601 29.4557 28.2574 29.539Z" fill="#A7F0B7"/>
<path d="M8.65119 28.897C8.81912 28.8996 8.97979 28.9659 9.10067 29.0825C9.22154 29.1991 9.29358 29.3573 9.30218 29.525C9.30219 29.6116 9.28505 29.6973 9.25177 29.7772C9.21849 29.8571 9.16973 29.9297 9.10828 29.9906C9.04683 30.0516 8.97393 30.0998 8.89376 30.1325C8.81359 30.1652 8.72775 30.1817 8.64118 30.181C8.47328 30.175 8.31438 30.1035 8.19851 29.9819C8.08264 29.8602 8.01899 29.698 8.02118 29.53C8.01998 29.4468 8.03543 29.3642 8.06663 29.287C8.09782 29.2099 8.14413 29.1398 8.20284 29.0808C8.26154 29.0218 8.33145 28.9752 8.40844 28.9436C8.48544 28.912 8.56797 28.8962 8.65119 28.897Z" fill="#A7F0B7"/>
<path d="M30.0811 8.72078C30.0752 8.88876 30.005 9.04805 29.8849 9.16569C29.7649 9.28333 29.6042 9.35031 29.4361 9.35278C29.2614 9.34652 29.0963 9.27119 28.9771 9.14333C28.8578 9.01547 28.7942 8.84551 28.8001 8.67078C28.8037 8.58775 28.8237 8.50626 28.859 8.43102C28.8943 8.35579 28.9442 8.28832 29.0058 8.23251C29.0674 8.1767 29.1394 8.13366 29.2178 8.1059C29.2961 8.07814 29.3791 8.0662 29.4621 8.07078C29.6295 8.07752 29.7877 8.14913 29.9032 8.27044C30.0188 8.39176 30.0826 8.55326 30.0811 8.72078Z" fill="#A7F0B7"/>
<path d="M31.5511 10.8311C31.5514 10.9143 31.5351 10.9968 31.5031 11.0736C31.4712 11.1505 31.4242 11.2201 31.365 11.2786C31.3058 11.3371 31.2355 11.3832 31.1582 11.4142C31.081 11.4452 30.9984 11.4604 30.9151 11.4591C30.7474 11.4539 30.5879 11.385 30.4691 11.2666C30.3502 11.1481 30.2809 10.9888 30.2751 10.8211C30.275 10.7346 30.2922 10.6489 30.3258 10.5691C30.3594 10.4894 30.4086 10.4172 30.4707 10.3568C30.5327 10.2965 30.6062 10.2492 30.6869 10.2178C30.7675 10.1864 30.8536 10.1716 30.9401 10.1741C31.1082 10.1806 31.2667 10.2534 31.3812 10.3765C31.4957 10.4996 31.5568 10.6631 31.5511 10.8311Z" fill="#A7F0B7"/>
<path d="M30.9091 26.2471C30.7412 26.2432 30.5813 26.1743 30.463 26.055C30.3448 25.9356 30.2774 25.7751 30.2751 25.6071C30.2768 25.5206 30.2956 25.4353 30.3303 25.356C30.365 25.2767 30.415 25.2051 30.4774 25.1452C30.5398 25.0853 30.6134 25.0383 30.694 25.0069C30.7746 24.9754 30.8606 24.9602 30.9471 24.9621C31.0299 24.9657 31.1111 24.9856 31.1862 25.0207C31.2612 25.0558 31.3285 25.1054 31.3843 25.1667C31.4401 25.2279 31.4832 25.2996 31.5111 25.3776C31.5391 25.4556 31.5513 25.5383 31.5471 25.6211C31.5443 25.7883 31.4757 25.9476 31.3564 26.0648C31.237 26.1819 31.0764 26.2474 30.9091 26.2471Z" fill="#A7F0B7"/>
<path d="M6.00339 10.8008C6.00268 10.9687 5.93811 11.1301 5.82277 11.2521C5.70744 11.3741 5.54999 11.4477 5.38239 11.4578C5.29934 11.4615 5.21639 11.4486 5.13836 11.4199C5.06034 11.3912 4.98878 11.3473 4.92785 11.2907C4.86692 11.2342 4.81783 11.1661 4.78342 11.0904C4.74901 11.0147 4.72996 10.9329 4.72739 10.8498C4.72238 10.7635 4.73493 10.677 4.76428 10.5957C4.79363 10.5143 4.83917 10.4397 4.89814 10.3764C4.95712 10.3132 5.02831 10.2625 5.10742 10.2275C5.18652 10.1925 5.2719 10.1739 5.35839 10.1729C5.52632 10.1735 5.68743 10.2394 5.80775 10.3566C5.92807 10.4737 5.99821 10.633 6.00339 10.8008Z" fill="#A7F0B7"/>
<path d="M11.4034 31.0318C11.4023 31.115 11.3846 31.1971 11.3514 31.2733C11.3183 31.3496 11.2703 31.4186 11.2103 31.4761C11.1503 31.5337 11.0795 31.5788 11.0019 31.6088C10.9243 31.6388 10.8416 31.6531 10.7584 31.6508C10.5904 31.6513 10.4291 31.5854 10.3095 31.4674C10.19 31.3493 10.122 31.1888 10.1204 31.0208C10.1201 30.9343 10.1372 30.8486 10.1707 30.7687C10.2041 30.6889 10.2533 30.6167 10.3152 30.5562C10.3772 30.4958 10.4506 30.4484 10.5312 30.4169C10.6118 30.3854 10.6979 30.3704 10.7844 30.3728C10.952 30.3835 11.1092 30.4575 11.2242 30.5799C11.3392 30.7023 11.4033 30.8639 11.4034 31.0318Z" fill="#A7F0B7"/>
<path d="M26.1581 31.0011C26.1616 31.1689 26.0987 31.3312 25.9832 31.4529C25.8677 31.5747 25.7088 31.6459 25.5411 31.6511C25.4579 31.6561 25.3745 31.6445 25.2958 31.6169C25.2171 31.5893 25.1447 31.5463 25.0828 31.4905C25.0209 31.4346 24.9708 31.367 24.9353 31.2916C24.8998 31.2161 24.8796 31.1344 24.8761 31.0511C24.8733 30.9645 24.8876 30.8783 24.9181 30.7973C24.9487 30.7162 24.9949 30.642 25.0541 30.5789C25.1134 30.5157 25.1845 30.4649 25.2634 30.4292C25.3424 30.3936 25.4275 30.3738 25.5141 30.3711C25.6822 30.3721 25.8433 30.4383 25.9635 30.5559C26.0836 30.6734 26.1534 30.8331 26.1581 31.0011Z" fill="#A7F0B7"/>
<path d="M10.7524 4.7679C10.8355 4.76524 10.9184 4.77903 10.9961 4.80848C11.0739 4.83794 11.1451 4.88248 11.2056 4.93954C11.2661 4.9966 11.3147 5.06505 11.3487 5.14097C11.3826 5.21688 11.4012 5.29876 11.4034 5.3819C11.4043 5.46843 11.3882 5.55429 11.3558 5.63455C11.3235 5.71481 11.2756 5.78789 11.2149 5.84959C11.1542 5.91128 11.0819 5.96038 11.0022 5.99407C10.9225 6.02776 10.837 6.04538 10.7504 6.0459C10.5825 6.0425 10.4226 5.97354 10.3048 5.85375C10.1871 5.73396 10.1209 5.57286 10.1204 5.4049C10.1209 5.23698 10.1875 5.07601 10.3058 4.95681C10.4241 4.8376 10.5845 4.76974 10.7524 4.7679Z" fill="#A7F0B7"/>
<path d="M25.5023 4.76779C25.6702 4.76345 25.8331 4.82528 25.9558 4.93996C26.0785 5.05464 26.1513 5.21297 26.1583 5.38079C26.1612 5.46731 26.1467 5.55355 26.1155 5.63432C26.0844 5.71509 26.0372 5.78873 25.9769 5.85083C25.9165 5.91293 25.8443 5.96221 25.7645 5.99571C25.6846 6.02921 25.5989 6.04624 25.5123 6.04579C25.3445 6.04072 25.1851 5.97155 25.0668 5.8525C24.9485 5.73345 24.8803 5.57358 24.8763 5.40579C24.8751 5.32268 24.8904 5.24017 24.9213 5.16301C24.9522 5.08585 24.998 5.01558 25.0562 4.95626C25.1145 4.89693 25.1838 4.84973 25.2604 4.81738C25.337 4.78504 25.4192 4.76818 25.5023 4.76779Z" fill="#A7F0B7"/>
<path d="M5.37003 24.962C5.53768 24.9684 5.69655 25.0387 5.81407 25.1584C5.93158 25.2781 5.99883 25.4383 6.00203 25.606C6.00143 25.6927 5.9834 25.7783 5.94902 25.8577C5.91463 25.9372 5.86459 26.009 5.80187 26.0687C5.73916 26.1284 5.66506 26.1749 5.584 26.2054C5.50293 26.2358 5.41656 26.2497 5.33003 26.2461C5.16299 26.236 5.00657 26.1608 4.89438 26.0366C4.78219 25.9125 4.72318 25.7492 4.73003 25.5821C4.73094 25.4992 4.74826 25.4173 4.78099 25.3412C4.81372 25.2651 4.86122 25.1962 4.92073 25.1386C4.98024 25.0809 5.05059 25.0356 5.12771 25.0053C5.20483 24.975 5.28719 24.9603 5.37003 24.962Z" fill="#A7F0B7"/>
<path d="M27.1033 13.3458C27.101 13.5081 27.0346 13.6629 26.9187 13.7766C26.8028 13.8903 26.6467 13.9536 26.4843 13.9528C26.3221 13.952 26.1668 13.8875 26.0517 13.7732C25.9367 13.6589 25.8712 13.504 25.8693 13.3418C25.8704 13.2618 25.8872 13.1827 25.9188 13.1092C25.9505 13.0357 25.9963 12.9692 26.0538 12.9135C26.1112 12.8577 26.179 12.8139 26.2534 12.7844C26.3278 12.7549 26.4073 12.7405 26.4873 12.7418C26.649 12.7407 26.8044 12.8036 26.9198 12.9168C27.0353 13.0299 27.1012 13.1842 27.1033 13.3458Z" fill="#A7F0B7"/>
<path d="M10.4024 23.0627C10.3995 23.2249 10.3332 23.3796 10.2177 23.4936C10.1022 23.6076 9.94668 23.6719 9.78439 23.6727C9.62215 23.6683 9.46785 23.6015 9.35365 23.4862C9.23945 23.3709 9.17416 23.2159 9.17139 23.0537C9.17532 22.8918 9.24295 22.738 9.35959 22.6256C9.47623 22.5133 9.63247 22.4515 9.79439 22.4537C9.87461 22.4526 9.95424 22.4676 10.0286 22.4978C10.1029 22.5281 10.1704 22.5729 10.2271 22.6297C10.2838 22.6865 10.3285 22.754 10.3586 22.8284C10.3887 22.9028 10.4036 22.9824 10.4024 23.0627Z" fill="#A7F0B7"/>
<path d="M9.78143 13.9849C9.70089 13.9877 9.6206 13.9743 9.54537 13.9454C9.47013 13.9165 9.40149 13.8728 9.34353 13.8168C9.28557 13.7608 9.23949 13.6937 9.20803 13.6195C9.17657 13.5453 9.16038 13.4655 9.16043 13.3849C9.15876 13.2225 9.22053 13.0659 9.3326 12.9485C9.44467 12.831 9.59818 12.7619 9.76043 12.7559C9.92163 12.7543 10.0769 12.8164 10.1925 12.9288C10.3081 13.0412 10.3745 13.1947 10.3774 13.3559C10.3822 13.437 10.3703 13.5181 10.3425 13.5944C10.3147 13.6707 10.2715 13.7405 10.2156 13.7995C10.1598 13.8584 10.0924 13.9053 10.0178 13.9372C9.94307 13.9691 9.86264 13.9853 9.78143 13.9849Z" fill="#A7F0B7"/>
<path d="M27.1223 23.039C27.1202 23.1192 27.1023 23.1982 27.0696 23.2714C27.0368 23.3447 26.9899 23.4107 26.9316 23.4657C26.8732 23.5208 26.8045 23.5637 26.7294 23.5921C26.6544 23.6204 26.5745 23.6336 26.4943 23.631C26.4142 23.6292 26.3353 23.6114 26.2621 23.5786C26.189 23.5458 26.1232 23.4987 26.0686 23.4401C26.014 23.3815 25.9716 23.3125 25.9441 23.2373C25.9166 23.162 25.9044 23.082 25.9083 23.002C25.9099 22.9216 25.9272 22.8423 25.9594 22.7687C25.9917 22.695 26.0381 22.6284 26.096 22.5727C26.1539 22.517 26.2223 22.4732 26.2972 22.4439C26.372 22.4146 26.4519 22.4004 26.5323 22.402C26.6946 22.4095 26.8473 22.4805 26.9577 22.5997C27.0681 22.7189 27.1272 22.8766 27.1223 23.039Z" fill="#A7F0B7"/>
<path d="M18.1185 9.13269C17.9569 9.13169 17.802 9.06773 17.6868 8.95439C17.5716 8.84105 17.5051 8.68726 17.5015 8.52569C17.5012 8.44563 17.5167 8.36631 17.5472 8.29225C17.5776 8.2182 17.6223 8.15087 17.6788 8.09412C17.7352 8.03737 17.8024 7.99231 17.8763 7.96152C17.9502 7.93073 18.0294 7.91482 18.1095 7.91469C18.1893 7.91296 18.2688 7.9272 18.3431 7.95658C18.4174 7.98596 18.4851 8.02988 18.5422 8.08577C18.5993 8.14166 18.6446 8.20838 18.6756 8.28204C18.7065 8.35569 18.7225 8.43479 18.7225 8.51469C18.7235 8.59497 18.7087 8.67466 18.6789 8.7492C18.6491 8.82374 18.6049 8.89167 18.5488 8.94908C18.4927 9.0065 18.4258 9.05228 18.3519 9.08378C18.2781 9.11529 18.1987 9.13191 18.1185 9.13269Z" fill="#A7F0B7"/>
<path d="M18.7063 27.8959C18.7029 28.0581 18.6353 28.2124 18.5183 28.3249C18.4013 28.4373 18.2445 28.4988 18.0823 28.4959C17.9205 28.4904 17.7675 28.421 17.6567 28.3029C17.5459 28.1849 17.4864 28.0277 17.4913 27.8659C17.4923 27.7858 17.5093 27.7067 17.5414 27.6333C17.5735 27.5599 17.6199 27.4937 17.678 27.4385C17.736 27.3833 17.8045 27.3403 17.8795 27.3121C17.9544 27.2838 18.0343 27.2708 18.1143 27.2739C18.1943 27.2749 18.2733 27.2919 18.3466 27.3239C18.42 27.3559 18.4862 27.4022 18.5413 27.4602C18.5965 27.5181 18.6395 27.5865 18.6678 27.6614C18.6962 27.7362 18.7092 27.8159 18.7063 27.8959Z" fill="#A7F0B7"/>
<path d="M22.9492 8.96497C22.9772 8.67997 23.1172 8.48997 23.4202 8.48497C23.7232 8.47997 23.8972 8.65197 23.9062 8.94697C23.913 9.0106 23.906 9.07497 23.8856 9.13563C23.8652 9.1963 23.8319 9.25183 23.788 9.2984C23.7441 9.34496 23.6907 9.38146 23.6313 9.40539C23.5719 9.42931 23.5081 9.44008 23.4442 9.43696C23.1492 9.44696 22.9942 9.25597 22.9492 8.96497Z" fill="#A7F0B7"/>
<path d="M12.8383 26.959C13.1383 26.988 13.3173 27.146 13.3163 27.439C13.3205 27.5027 13.311 27.5667 13.2883 27.6264C13.2657 27.6862 13.2304 27.7403 13.185 27.7853C13.1396 27.8302 13.085 27.8649 13.025 27.8869C12.9651 27.909 12.901 27.9178 12.8373 27.913C12.7737 27.9181 12.7097 27.9092 12.6499 27.8869C12.5901 27.8647 12.5359 27.8296 12.4911 27.7841C12.4463 27.7386 12.412 27.6839 12.3906 27.6238C12.3692 27.5636 12.3613 27.4995 12.3673 27.436C12.3693 27.136 12.5513 26.988 12.8383 26.959Z" fill="#A7F0B7"/>
<path d="M23.9562 27.415C23.9262 27.715 23.7612 27.9 23.4642 27.894C23.4032 27.8975 23.3421 27.888 23.285 27.8662C23.2279 27.8444 23.1761 27.8108 23.1329 27.7675C23.0897 27.7243 23.0562 27.6724 23.0345 27.6152C23.0129 27.5581 23.0035 27.497 23.0072 27.436C23.0072 27.136 23.1682 26.953 23.4692 26.946C23.7702 26.939 23.9222 27.132 23.9562 27.415Z" fill="#A7F0B7"/>
<path d="M28.7575 18.6578C28.4635 18.6118 28.2915 18.4518 28.3075 18.1458C28.3049 18.0849 28.3154 18.0242 28.3383 17.9678C28.3612 17.9113 28.396 17.8605 28.4403 17.8186C28.4846 17.7768 28.5374 17.745 28.595 17.7253C28.6527 17.7057 28.7139 17.6987 28.7745 17.7048C28.8388 17.6991 28.9035 17.7077 28.964 17.73C29.0246 17.7523 29.0795 17.7877 29.1247 17.8336C29.17 17.8796 29.2046 17.935 29.226 17.9959C29.2474 18.0567 29.2551 18.1216 29.2485 18.1858C29.2435 18.4808 29.0525 18.6388 28.7575 18.6578Z" fill="#A7F0B7"/>
<path d="M13.2813 8.99895C13.2433 9.28995 13.0873 9.46794 12.7813 9.45194C12.4753 9.43594 12.3203 9.23295 12.3363 8.94295C12.3352 8.8817 12.347 8.82091 12.371 8.76455C12.395 8.70819 12.4306 8.65753 12.4756 8.6159C12.5205 8.57427 12.5737 8.5426 12.6317 8.52296C12.6898 8.50332 12.7513 8.49616 12.8123 8.50194C13.1033 8.51494 13.2633 8.69195 13.2813 8.99895Z" fill="#A7F0B7"/>
<path d="M7.98137 18.2227C7.95237 18.5117 7.80736 18.6977 7.49936 18.6947C7.19137 18.6917 7.02837 18.4947 7.03237 18.2057C7.02893 18.1445 7.03839 18.0833 7.06015 18.026C7.08191 17.9687 7.11547 17.9166 7.15866 17.8731C7.20185 17.8297 7.25371 17.7958 7.31085 17.7736C7.368 17.7515 7.42916 17.7416 7.49037 17.7447C7.78137 17.7417 7.95437 17.9147 7.98137 18.2227Z" fill="#A7F0B7"/>
</svg>
