<svg width="84" height="84" viewBox="0 0 84 84" fill="none" xmlns="http://www.w3.org/2000/svg">
<path d="M76.3 17.5C78.4 17.5 80.5 19.6 80.5 22.05L80.5 34.3C80.5 36.4 78.4 38.5 75.95 38.5L56.7 38.5C54.6 38.5 52.5 36.4 52.5 33.95L52.5 21.7C52.5 19.6 54.6 17.5 56.7 17.5L56.7 12.25C56.7 7.35 61.6 3.5 66.5 3.5C71.4 3.5 76.3 7.35 76.3 12.25L76.3 17.5ZM71.75 17.5L71.75 12.25C71.75 9.45 69.3 7.7 66.5 7.7C63.7 7.7 61.25 9.45 61.25 12.25L61.25 17.5L71.75 17.5ZM38.5 48.37L71.365 67.375L67.865 73.5L35 54.46L11.095 68.25L7.595 62.195L31.5 48.37L31.5 10.5L38.5 10.5L38.5 48.37Z" fill="url(#paint0_linear_702_7893)"/>
<defs>
<linearGradient id="paint0_linear_702_7893" x1="44.0475" y1="3.5" x2="44.0475" y2="73.5" gradientUnits="userSpaceOnUse">
<stop stop-color="#79F0A9"/>
<stop offset="1" stop-color="#0125D5"/>
</linearGradient>
</defs>
</svg>
