<svg width="36" height="36" viewBox="0 0 36 36" fill="none" xmlns="http://www.w3.org/2000/svg">
<path d="M17.99 36C7.99001 35.985 -0.00999062 27.917 9.36473e-06 17.87C0.0100094 8.06102 8.14101 -0.01797 17.986 3.00198e-05C27.98 0.01803 36.03 8.09302 35.999 18.069C35.968 27.951 27.871 36.013 17.99 36ZM17.942 1.20003C8.65701 1.22003 1.18601 8.76702 1.20001 18.111C1.21301 27.227 8.78901 34.811 17.866 34.799C27.277 34.785 34.818 27.305 34.799 17.999C34.78 8.69302 27.235 1.18003 17.942 1.20003Z" fill="#A7F0B7"/>
<path d="M18.0259 12.0222C16.6259 13.4222 15.2969 14.7582 13.9639 16.0922C13.4479 16.6092 13.2139 16.6072 12.6919 16.0852C11.9672 15.3612 11.2426 14.6368 10.5179 13.9122C10.0699 13.4632 10.0649 13.2122 10.5019 12.7732C12.8159 10.4578 15.1309 8.14285 17.4469 5.82819C17.8619 5.41319 18.1389 5.41519 18.5599 5.83519C20.8759 8.14919 23.1909 10.4642 25.5049 12.7802C25.9259 13.2022 25.9239 13.4682 25.5049 13.8942C24.7469 14.6548 23.9869 15.4145 23.2249 16.1732C22.8099 16.5852 22.5309 16.5822 22.1129 16.1642C20.8462 14.9015 19.5829 13.6375 18.3229 12.3722C18.2229 12.2762 18.1439 12.1632 18.0259 12.0222ZM13.3729 14.9772C13.4469 14.9072 13.5479 14.8162 13.6429 14.7212L17.4079 10.9572C17.8759 10.4902 18.1269 10.4922 18.6019 10.9662C19.8579 12.2202 21.1112 13.4772 22.3619 14.7372C22.4358 14.8263 22.4964 14.9257 22.5419 15.0322L24.2329 13.3452L17.9619 7.07719L11.7159 13.3242L13.3729 14.9772Z" fill="#A7F0B7"/>
<path d="M17.9618 24.0048L22.0728 19.8758C22.5428 19.4038 22.8008 19.4018 23.2658 19.8648C24.0178 20.6148 24.7685 21.3658 25.5178 22.1178C25.9178 22.5248 25.9248 22.8038 25.5238 23.2048C23.2012 25.5308 20.8775 27.8548 18.5528 30.1768C18.1528 30.5768 17.8618 30.5768 17.4658 30.1848C15.1418 27.8628 12.8185 25.5391 10.4958 23.2138C10.0778 22.7948 10.0818 22.5298 10.5078 22.1018C11.2578 21.3498 12.0088 20.5988 12.7608 19.8488C13.2048 19.4058 13.4718 19.4078 13.9278 19.8628C15.1825 21.1155 16.4365 22.3705 17.6898 23.6278C17.7892 23.747 17.8801 23.8729 17.9618 24.0048ZM17.9708 28.9268L24.2708 22.6268L22.5708 20.9268C22.516 21.0464 22.4468 21.1589 22.3648 21.2618C21.1055 22.5285 19.8425 23.7928 18.5758 25.0548C18.1408 25.4888 17.8648 25.4908 17.4358 25.0618C16.1692 23.7998 14.9055 22.5368 13.6448 21.2728C13.5448 21.1728 13.4448 21.0858 13.3758 21.0178L11.7208 22.6748L17.9708 28.9268Z" fill="#A7F0B7"/>
<path d="M17.9902 14.7959C18.1722 14.9029 18.3532 14.9689 18.4792 15.0959C19.2992 15.8959 20.1115 16.7066 20.9162 17.5279C21.2332 17.8499 21.2332 18.1569 20.9162 18.4779C20.1108 19.2959 19.2992 20.1079 18.4812 20.9139C18.1472 21.2429 17.8442 21.2369 17.5052 20.8999C16.6985 20.0999 15.8955 19.2972 15.0962 18.4919C14.7632 18.1539 14.7632 17.8519 15.0962 17.5159C15.8962 16.7079 16.6998 15.9056 17.5072 15.1089C17.6332 14.9809 17.8102 14.9089 17.9902 14.7959ZM19.5812 18.0479C19.0302 17.4929 18.4812 16.9399 17.9812 16.4309L16.4182 17.9889L18.0262 19.6039L19.5812 18.0479Z" fill="#A7F0B7"/>
<path d="M11.8622 18.0007C11.7502 18.1847 11.6812 18.3627 11.5622 18.4887C10.7662 19.3007 9.96316 20.1054 9.15316 20.9027C8.81216 21.2387 8.51616 21.2357 8.17616 20.9027C7.36949 20.1027 6.56584 19.2984 5.76517 18.4897C5.43617 18.1567 5.43717 17.8477 5.76517 17.5127C6.56517 16.7047 7.36882 15.9007 8.17616 15.1007C8.51416 14.7657 8.81016 14.7647 9.15216 15.1007C9.96149 15.9007 10.7645 16.7057 11.5612 17.5157C11.6882 17.6367 11.7552 17.8177 11.8622 18.0007ZM8.66217 16.3947L7.06217 17.9947L8.66217 19.6047L10.2682 18.0047C9.74717 17.4737 9.19517 16.9227 8.66217 16.3947Z" fill="#A7F0B7"/>
<path d="M27.3328 21.204C27.1528 21.093 26.9738 21.023 26.8478 20.904C26.0365 20.104 25.2318 19.3006 24.4338 18.494C24.1058 18.161 24.1048 17.848 24.4338 17.516C25.2338 16.708 26.0378 15.9036 26.8458 15.103C27.1848 14.767 27.4818 14.766 27.8218 15.103C28.6298 15.903 29.4335 16.7073 30.2328 17.516C30.5638 17.85 30.5638 18.16 30.2328 18.494C29.4328 19.3026 28.6282 20.1063 27.8188 20.905C27.6928 21.022 27.5148 21.093 27.3328 21.204ZM28.9538 18.03L27.3348 16.417L25.7498 17.993L27.3648 19.615L28.9538 18.03Z" fill="#A7F0B7"/>
</svg>
