<svg width="72" height="72" viewBox="0 0 72 72" fill="none" xmlns="http://www.w3.org/2000/svg">
<path d="M65.375 30.125C66.9332 30.125 68.4275 29.506 69.5293 28.4043C70.6311 27.3025 71.25 25.8081 71.25 24.25V6.625C71.25 5.06685 70.6311 3.57252 69.5293 2.47075C68.4275 1.36897 66.9332 0.75 65.375 0.75H47.75C46.1919 0.75 44.6976 1.36897 43.5958 2.47075C42.494 3.57252 41.875 5.06685 41.875 6.625V24.25C41.875 25.8081 42.494 27.3025 43.5958 28.4043C44.6976 29.506 46.1919 30.125 47.75 30.125H53.625V42.1688C50.8024 42.7444 48.2114 44.1374 46.1744 46.1744C44.1374 48.2114 42.7444 50.8024 42.1688 53.625H30.125V47.75C30.125 46.1919 29.5061 44.6975 28.4043 43.5957C27.3025 42.494 25.8082 41.875 24.25 41.875H18.375V29.8312C21.9413 29.1033 25.1102 27.0771 27.2674 24.1455C29.4246 21.2138 30.4165 17.5856 30.0507 13.9643C29.6848 10.3429 27.9874 6.98639 25.2874 4.54544C22.5875 2.10448 19.0773 0.752998 15.4375 0.752998C11.7977 0.752998 8.28761 2.10448 5.58765 4.54544C2.88768 6.98639 1.19024 10.3429 0.824408 13.9643C0.458577 17.5856 1.45042 21.2138 3.60764 24.1455C5.76486 27.0771 8.93378 29.1033 12.5 29.8312V41.875H6.62503C5.06689 41.875 3.57256 42.494 2.47078 43.5957C1.369 44.6975 0.750033 46.1919 0.750033 47.75V65.375C0.750033 66.9331 1.369 68.4275 2.47078 69.5293C3.57256 70.631 5.06689 71.25 6.62503 71.25H24.25C25.8082 71.25 27.3025 70.631 28.4043 69.5293C29.5061 68.4275 30.125 66.9331 30.125 65.375V59.5H42.1688C42.7001 62.0994 43.9256 64.5064 45.7151 66.4652C47.5046 68.424 49.7913 69.8615 52.3323 70.625C54.8732 71.3885 57.5735 71.4494 60.1463 70.8014C62.7191 70.1533 65.0683 68.8204 66.9444 66.9444C68.8205 65.0683 70.1533 62.7191 70.8014 60.1463C71.4494 57.5735 71.3885 54.8732 70.625 52.3322C69.8615 49.7913 68.424 47.5046 66.4652 45.7151C64.5064 43.9256 62.0994 42.7001 59.5 42.1688V30.125H65.375ZM6.62503 15.4375C6.62503 13.6946 7.14188 11.9907 8.11021 10.5415C9.07854 9.09233 10.4549 7.96281 12.0651 7.29581C13.6754 6.62882 15.4473 6.4543 17.1568 6.79433C18.8662 7.13436 20.4365 7.97367 21.6689 9.20612C22.9014 10.4386 23.7407 12.0088 24.0807 13.7183C24.4207 15.4277 24.2462 17.1996 23.5792 18.8099C22.9122 20.4202 21.7827 21.7965 20.3335 22.7648C18.8843 23.7332 17.1805 24.25 15.4375 24.25C13.1003 24.25 10.8588 23.3215 9.20615 21.6689C7.55349 20.0162 6.62503 17.7747 6.62503 15.4375ZM24.25 65.375H6.62503V47.75H24.25V65.375ZM65.375 56.5625C65.375 58.3054 64.8582 60.0093 63.8899 61.4585C62.9215 62.9077 61.5452 64.0372 59.9349 64.7042C58.3247 65.3712 56.5527 65.5457 54.8433 65.2057C53.1338 64.8656 51.5636 64.0263 50.3312 62.7939C49.0987 61.5614 48.2594 59.9912 47.9194 58.2817C47.5793 56.5723 47.7538 54.8004 48.4208 53.1901C49.0878 51.5798 50.2174 50.2035 51.6666 49.2352C53.1158 48.2668 54.8196 47.75 56.5625 47.75C58.8997 47.75 61.1412 48.6785 62.7939 50.3311C64.4466 51.9838 65.375 54.2253 65.375 56.5625ZM47.75 6.625H65.375V24.25H47.75V6.625Z" fill="url(#paint0_linear_702_7436)"/>
<defs>
<linearGradient id="paint0_linear_702_7436" x1="36" y1="0.75" x2="36" y2="71.25" gradientUnits="userSpaceOnUse">
<stop stop-color="#A7F0B7"/>
<stop offset="1" stop-color="#2E56FF"/>
</linearGradient>
</defs>
</svg>
