<svg width="13" height="16" viewBox="0 0 13 16" fill="none" xmlns="http://www.w3.org/2000/svg">
<path d="M1.52941 16C1.10882 16 0.748647 15.8435 0.448882 15.5304C0.149627 15.2168 0 14.84 0 14.4V3.2H1.52941V14.4H9.94118V16H1.52941ZM4.58824 12.8C4.16765 12.8 3.80773 12.6435 3.50847 12.3304C3.20871 12.0168 3.05882 11.64 3.05882 11.2V1.6C3.05882 1.16 3.20871 0.7832 3.50847 0.4696C3.80773 0.156533 4.16765 0 4.58824 0H11.4706C11.8912 0 12.2514 0.156533 12.5511 0.4696C12.8504 0.7832 13 1.16 13 1.6V11.2C13 11.64 12.8504 12.0168 12.5511 12.3304C12.2514 12.6435 11.8912 12.8 11.4706 12.8H4.58824ZM4.58824 11.2H11.4706V1.6H4.58824V11.2ZM4.58824 11.2V1.6V11.2Z" fill="black"/>
</svg>
