<svg width="43" height="43" viewBox="0 0 43 43" fill="none" xmlns="http://www.w3.org/2000/svg">
<path d="M42 22C41.9838 16.4355 39.7661 11.1035 35.8313 7.16872C31.8966 3.23397 26.5646 1.01626 21 1.00004C17.4169 0.948928 13.8886 1.8829 10.8 3.70004L12.45 6.25004C13.6225 5.68648 14.8242 5.18577 16.05 4.75004C13.5703 9.64291 12.1882 15.0179 12 20.5H3C3.16807 18.0233 3.88543 15.6151 5.1 13.45L2.85 11.5C0.983578 14.6845 -0.000197877 18.3089 2.14367e-07 22C-0.000393852 24.7579 0.542518 27.4888 1.59773 30.0369C2.65294 32.5849 4.19977 34.9001 6.14988 36.8502C8.09999 38.8003 10.4152 40.3471 12.9632 41.4023C15.5112 42.4575 18.2421 43.0004 21 43C23.674 43.0252 26.3261 42.5152 28.8 41.5L27.9 38.65C25.4407 39.7017 22.7697 40.164 20.1 40C16.9012 35.0801 15.1353 29.3668 15 23.5H41.85C41.974 23.0102 42.0245 22.5047 42 22ZM16.2 39.4C13.2172 38.506 10.4914 36.9117 8.25 34.75C5.27378 31.7047 3.42232 27.7372 3 23.5H12C12.2064 29.0455 13.6409 34.476 16.2 39.4ZM15 20.5C15.1193 14.6523 16.8307 8.94776 19.95 4.00004H22.05C25.1693 8.94776 26.8807 14.6523 27 20.5H15ZM30 20.5C29.8859 14.9412 28.4459 9.49006 25.8 4.60004C29.3293 5.6173 32.4666 7.6821 34.7969 10.5212C37.1271 13.3604 38.5405 16.8401 38.85 20.5H30Z" fill="url(#paint0_linear_702_7227)"/>
<defs>
<linearGradient id="paint0_linear_702_7227" x1="21.003" y1="0.998047" x2="21.003" y2="43.0009" gradientUnits="userSpaceOnUse">
<stop stop-color="#A7F0B7"/>
<stop offset="1" stop-color="#2E56FF"/>
</linearGradient>
</defs>
</svg>
