<svg width="37" height="36" viewBox="0 0 37 36" fill="none" xmlns="http://www.w3.org/2000/svg">
<path d="M18.2428 35.894C9.5927 35.923 2.03085 29.6468 0.507012 21.1826C-0.28297 16.8692 0.541861 12.4175 2.82593 8.66714C5.10999 4.91678 8.6954 2.127 12.9059 0.824002C22.8375 -2.27609 33.3846 3.66408 35.7996 13.7294C35.9817 14.4854 36.0772 15.2624 36.202 16.0294C36.2523 16.3364 36.1597 16.5924 35.8439 16.7085C35.4778 16.8435 35.179 16.6204 35.0895 16.1964C34.8381 15.0074 34.6952 13.7784 34.2929 12.6403C32.1807 6.66116 27.9964 2.86305 21.7723 1.52502C13.4903 -0.257034 5.41145 4.2331 2.39194 12.1103C0.0342703 18.2595 1.70999 25.5237 6.51585 30.0508C9.16823 32.5509 12.2803 34.1389 15.9023 34.602C21.6405 35.335 26.548 33.5729 30.5723 29.4568C32.6936 27.2867 34.0646 24.6857 34.7486 21.7326C34.7656 21.6616 34.7847 21.5906 34.8069 21.5206C34.9135 21.1666 35.176 20.9956 35.4888 21.0746C35.5647 21.0901 35.6363 21.1214 35.699 21.1665C35.7617 21.2117 35.8141 21.2695 35.8526 21.3363C35.8911 21.403 35.9149 21.4772 35.9224 21.5538C35.93 21.6304 35.921 21.7077 35.8962 21.7806C35.683 22.5676 35.4999 23.3686 35.2002 24.1247C32.8204 30.1388 28.453 33.9249 22.1425 35.453C20.8791 35.759 19.5554 35.824 18.2599 36L18.2428 35.894Z" fill="#A7F0B7"/>
<path d="M31.7918 17.9755C31.7777 25.3887 25.7035 31.4199 18.2563 31.4149C10.7941 31.4149 4.69473 25.3377 4.71686 17.9345C4.73899 10.5083 10.8434 4.46816 18.2956 4.49816C25.7478 4.52816 31.8059 10.5643 31.7918 17.9755ZM18.2433 5.61419C11.3976 5.63819 5.8444 11.1713 5.85244 17.9615C5.85909 21.2302 7.16787 24.3631 9.49237 26.6745C11.8169 28.986 14.9678 30.2877 18.2554 30.2949C25.087 30.3039 30.6995 24.7137 30.6723 17.9305C30.6442 11.1303 25.0538 5.59019 18.2433 5.61419Z" fill="#A7F0B7"/>
<path d="M23.3042 17.9775C23.258 18.1057 23.2039 18.2309 23.1423 18.3525C21.7053 20.8192 20.2663 23.283 18.8253 25.7437C18.4974 26.3057 18.0256 26.3117 17.6997 25.7557C16.2513 23.2836 14.8046 20.8106 13.3596 18.3365C13.2855 18.2244 13.2461 18.0931 13.2461 17.959C13.2461 17.8249 13.2855 17.6936 13.3596 17.5815C14.8194 15.0861 16.2785 12.5917 17.7369 10.0983C18.0035 9.64326 18.5235 9.65326 18.7941 10.1143C20.2505 12.5957 21.7023 15.0801 23.1493 17.5675C23.212 17.6998 23.2638 17.8369 23.3042 17.9775ZM18.258 11.4293L14.5807 17.7205C14.624 17.7564 14.6693 17.7898 14.7164 17.8205C15.8299 18.4335 16.9403 19.0515 18.0628 19.6475C18.1367 19.6748 18.2155 19.6864 18.2942 19.6816C18.3728 19.6768 18.4496 19.6557 18.5195 19.6195C19.5867 19.0505 20.6438 18.4625 21.7029 17.8775C21.7827 17.8281 21.8596 17.7744 21.9333 17.7165L18.258 11.4293ZM21.1336 19.5605L21.0673 19.5095C20.2757 19.9446 19.4791 20.3726 18.6925 20.8176C18.565 20.901 18.4156 20.9454 18.263 20.9454C18.1103 20.9454 17.961 20.901 17.8335 20.8176C17.1234 20.4106 16.4012 20.0256 15.682 19.6325C15.5945 19.5845 15.5 19.5485 15.331 19.4715L18.259 24.4797L21.1336 19.5605Z" fill="#A7F0B7"/>
</svg>
