<svg width="38" height="38" viewBox="0 0 38 38" fill="none" xmlns="http://www.w3.org/2000/svg">
<g clip-path="url(#clip0_702_7981)">
<path d="M21.2296 12.574C19.7627 12.2331 18.2372 12.2331 16.7704 12.574C15.9232 12.0544 15.2764 11.8156 14.806 11.7148C14.6052 11.6695 14.3998 11.6481 14.194 11.6512C14.1003 11.6537 14.0071 11.665 13.9156 11.6848L13.9036 11.6872L13.8988 11.6896H13.8952L14.0596 12.2668L13.8952 11.6908C13.8109 11.7146 13.7328 11.7566 13.6665 11.8138C13.6001 11.871 13.5471 11.9421 13.5112 12.022C13.1572 12.8148 13.0897 13.7061 13.3204 14.5432C12.7229 15.2672 12.3974 16.1773 12.4 17.116C12.4 18.9796 12.9496 20.2324 13.8868 21.0376C14.5432 21.6016 15.34 21.9016 16.1392 22.0732C16.0134 22.4425 15.966 22.8341 16 23.2228V23.9404C15.5116 24.0424 15.1732 24.01 14.932 23.9308C14.6308 23.8312 14.3992 23.6308 14.1772 23.3428C14.0611 23.1875 13.953 23.0265 13.8532 22.8604L13.7848 22.7488C13.6984 22.6051 13.6088 22.4635 13.516 22.324C13.288 21.9868 12.9496 21.5644 12.4024 21.4204L11.8216 21.268L11.5168 22.4296L12.0976 22.582C12.1936 22.606 12.3184 22.696 12.5236 22.9972C12.6026 23.1161 12.6786 23.2369 12.7516 23.3596L12.8332 23.4916C12.946 23.674 13.0756 23.8756 13.2256 24.0724C13.5292 24.4684 13.9432 24.868 14.5576 25.0708C14.9776 25.21 15.4552 25.2436 16 25.1596V27.4C16 27.5591 16.0632 27.7117 16.1757 27.8242C16.2882 27.9368 16.4409 28 16.6 28H21.4C21.5591 28 21.7117 27.9368 21.8242 27.8242C21.9368 27.7117 22 27.5591 22 27.4V23.1244C22 22.7464 21.9832 22.3996 21.8764 22.0768C22.672 21.9088 23.4628 21.6088 24.1156 21.0448C25.0516 20.2336 25.6 18.9688 25.6 17.0944V17.0932C25.597 16.1622 25.2713 15.261 24.6784 14.5432C24.9088 13.7064 24.8413 12.8157 24.4876 12.0232C24.4519 11.9432 24.3991 11.872 24.333 11.8145C24.2669 11.7571 24.189 11.7149 24.1048 11.6908L23.9404 12.2668C24.1048 11.6908 24.1036 11.6908 24.1024 11.6908L24.1 11.6896L24.0952 11.6872L24.0844 11.6848C24.0548 11.6771 24.0247 11.6711 23.9944 11.6668C23.9316 11.6576 23.8682 11.6524 23.8048 11.6512C23.599 11.6481 23.3936 11.6695 23.1928 11.7148C22.7236 11.8156 22.0768 12.0544 21.2296 12.574Z" fill="white"/>
</g>
<rect x="0.5" y="0.5" width="37" height="37" rx="18.5" stroke="white"/>
<defs>
<clipPath id="clip0_702_7981">
<rect width="18" height="18" fill="white" transform="translate(10 10)"/>
</clipPath>
</defs>
</svg>
