<svg width="57" height="62" viewBox="0 0 57 62" fill="none" xmlns="http://www.w3.org/2000/svg">
<g clip-path="url(#clip0_850_6337)">
<path d="M25.3174 25.6172V32.8404L0.380737 47.2297V40.0141L19.0626 29.2294L25.3174 25.6172Z" fill="white"/>
<path d="M44.1211 14.7612L37.8726 18.3684L31.6801 14.8069H31.6521L31.6242 7.54565L44.1211 14.7612Z" fill="white"/>
<path d="M31.6243 50.838V58.0523L12.9196 47.2536L19.1566 43.6465L25.3708 47.2308L31.6243 50.838Z" fill="white"/>
<path d="M56.6192 14.7612V21.9768L31.6483 36.4207L31.6242 29.1911L56.6192 14.7612Z" fill="white"/>
<path d="M25.3174 32.8402L0.380737 47.2295L25.3821 61.6645L31.6242 58.0522L12.9195 47.2536L19.1565 43.6464L25.4049 40.0317L31.6483 36.4207L56.6192 21.9768V14.7612L31.6242 29.1911L31.6483 36.4207L25.3174 32.8402Z" stroke="white" stroke-width="0.76154" stroke-miterlimit="1"/>
<path d="M31.6241 29.1913L25.3173 25.6172V32.8404" stroke="white" stroke-width="0.76154" stroke-miterlimit="1"/>
<path d="M31.6242 7.54564L44.1211 14.7612L37.8727 18.3684L31.6801 21.9438L25.3174 25.617L25.3999 11.1668L19.1273 7.54564L25.3758 3.93848L31.6242 7.54564Z" stroke="white" stroke-width="0.76154" stroke-miterlimit="1"/>
<path d="M31.6801 22.0086V21.9438L31.6521 14.8069L31.6242 7.54565L25.3999 11.1668" stroke="white" stroke-width="0.76154" stroke-miterlimit="1"/>
<path d="M37.8727 18.3686L31.6801 14.8071" stroke="white" stroke-width="0.76154" stroke-miterlimit="1"/>
<path d="M19.1275 7.50244V7.5456L19.0628 29.2292L25.3176 25.6169" stroke="white" stroke-width="0.76154" stroke-miterlimit="1"/>
<path d="M19.0626 29.2295L0.380737 40.0142V47.2298" stroke="white" stroke-width="0.76154" stroke-miterlimit="1"/>
<path d="M31.6243 58.0526V50.8382L25.3708 47.2311L19.1566 43.6468L19.1211 43.6265" stroke="white" stroke-width="0.76154" stroke-miterlimit="1"/>
<path d="M25.372 47.2283L25.405 40.0317" stroke="white" stroke-width="0.76154" stroke-miterlimit="1"/>
<path d="M31.6242 50.8381L31.6483 36.4209" stroke="white" stroke-width="0.76154" stroke-miterlimit="1"/>
<path d="M25.3758 3.93851L31.6242 0.330078L37.8727 3.93851L56.6192 14.7613" stroke="white" stroke-width="0.76154" stroke-miterlimit="1"/>
</g>
<defs>
<clipPath id="clip0_850_6337">
<rect width="57" height="61.9944" fill="white"/>
</clipPath>
</defs>
</svg>
