<svg width="38" height="38" viewBox="0 0 38 38" fill="none" xmlns="http://www.w3.org/2000/svg">
<path d="M26.875 19C26.875 21.0813 26.5375 22.7688 26.0875 22.7688C25.6375 22.7688 25.3 21.0813 25.3 19C25.3 16.9188 25.6375 15.2313 26.0875 15.2313C26.5375 15.2313 26.875 16.9188 26.875 19ZM24.9062 19C24.9062 21.3063 23.8938 23.2188 22.7125 23.2188C21.5312 23.2188 20.5188 21.3063 20.5188 19C20.5188 16.6938 21.5312 14.7812 22.7125 14.7812C23.8938 14.7812 24.9062 16.6938 24.9062 19ZM20.0125 19C20.0125 21.475 18.0437 23.5 15.5687 23.5C13.0937 23.5 11.125 21.475 11.125 19C11.125 16.525 13.0937 14.5 15.5687 14.5C18.0437 14.5 20.0125 16.525 20.0125 19Z" fill="white"/>
<rect x="0.5" y="0.5" width="37" height="37" rx="18.5" stroke="white"/>
</svg>
