<svg width="150" height="163" viewBox="0 0 150 163" fill="none" xmlns="http://www.w3.org/2000/svg">
<path fill-rule="evenodd" clip-rule="evenodd" d="M83.3056 0.133647C82.9971 -0.0445285 82.617 -0.0445285 82.3084 0.133647L49.5863 19.0276C49.3108 19.1867 49.1297 19.4663 49.0942 19.7781H49.0876V19.8911L48.9199 76.0924L0.498564 104.045C0.190054 104.223 0 104.552 0 104.909V123.802C0.000117428 124.158 0.190122 124.488 0.498508 124.666L65.9641 162.463C66.2729 162.642 66.6534 162.642 66.962 162.463L83.3068 153.004C83.6147 152.826 83.8044 152.497 83.8045 152.142V133.251C83.8045 133.236 83.8042 133.222 83.8035 133.207L83.8657 96.0758L148.549 58.5416C148.858 58.3634 149.047 58.0344 149.047 57.6785V38.7846C149.047 38.4284 148.857 38.0993 148.549 37.9212C148.54 37.9164 148.532 37.9118 148.524 37.9072L83.3056 0.133647ZM146.262 38.7849L82.807 2.14841L68.4398 10.4454L116.029 37.9215C116.337 38.0997 116.528 38.4288 116.527 38.785C116.527 39.1412 116.337 39.4704 116.029 39.6485L68.2999 67.2034L82.8011 75.4215L146.262 38.7849ZM81.8696 97.2303L81.8123 131.526L67.436 123.234L67.5172 105.531L81.8696 97.2303ZM65.5178 106.688L52.154 114.419L65.4471 122.086L65.5178 106.688ZM50.9174 74.939L51.0766 21.6149L65.509 29.9467L65.2996 66.633L50.9174 74.939ZM52.079 19.8911L66.4462 11.5971L80.8177 19.8936L66.5059 28.2197L52.079 19.8911ZM83.8816 40.5893L83.9414 55.871L97.1713 48.2324L83.8816 40.5893ZM81.9518 57.0197L67.3003 65.478L67.5031 29.9465L81.8144 21.6207L81.9518 57.0197ZM67.2872 68.9216L81.8123 77.1532L81.8678 93.787L67.2872 85.5408V68.9216ZM80.8624 95.5092L66.2981 87.2723L2.9915 123.802L66.4621 160.448L80.8151 152.142L33.331 124.729C33.0227 124.551 32.8326 124.222 32.8325 123.866C32.8324 123.51 33.0221 123.181 33.3304 123.002L80.8624 95.5092Z" fill="white"/>
</svg>
