<svg width="68" height="20" viewBox="0 0 68 20" fill="none" xmlns="http://www.w3.org/2000/svg">
<path d="M0.0756836 19.3609V0.349121H7.57641C9.01838 0.349121 10.2468 0.624519 11.2618 1.17532C12.2767 1.71992 13.0503 2.47804 13.5826 3.44967C14.121 4.41511 14.3902 5.52908 14.3902 6.79158C14.3902 8.05408 14.1179 9.16805 13.5733 10.1335C13.0287 11.0989 12.2396 11.8509 11.2061 12.3893C10.1788 12.9277 8.93483 13.1969 7.4743 13.1969H2.69351V9.97567H6.82448C7.59807 9.97567 8.23551 9.84262 8.73679 9.5765C9.24427 9.3042 9.62178 8.92978 9.86933 8.45325C10.1231 7.97053 10.2499 7.41664 10.2499 6.79158C10.2499 6.16033 10.1231 5.60953 9.86933 5.13919C9.62178 4.66266 9.24427 4.29443 8.73679 4.0345C8.22932 3.76839 7.58569 3.63533 6.80591 3.63533H4.09526V19.3609H0.0756836Z" fill="white"/>
<path d="M18.0825 19.3609H13.7752L20.3383 0.349121H25.5183L32.0721 19.3609H27.7648L23.0026 4.6936H22.854L18.0825 19.3609ZM17.8133 11.888H27.9876V15.0257H17.8133V11.888Z" fill="white"/>
<path d="M34.3604 19.3609V0.349121H38.38V8.73174H38.6306L45.4723 0.349121H50.2902L43.235 8.8617L50.3737 19.3609H45.5651L40.3573 11.5445L38.38 13.9581V19.3609H34.3604Z" fill="white"/>
<path d="M51.6594 3.66318V0.349121H67.2736V3.66318H61.4531V19.3609H57.4799V3.66318H51.6594Z" fill="white"/>
</svg>
