<svg width="24" height="25" viewBox="0 0 24 25" fill="none" xmlns="http://www.w3.org/2000/svg">
<path d="M20.8688 7.82192L16.6781 3.6313C16.5562 3.5094 16.4116 3.41271 16.2523 3.34675C16.0931 3.28078 15.9224 3.24683 15.75 3.24683C15.5776 3.24683 15.4069 3.28078 15.2477 3.34675C15.0884 3.41271 14.9438 3.5094 14.8219 3.6313L3.57187 14.8813C3.3283 15.1292 3.19049 15.4619 3.1875 15.8094V20C3.1875 20.3481 3.32578 20.682 3.57192 20.9281C3.81806 21.1743 4.1519 21.3125 4.5 21.3125H8.69062C9.03812 21.3096 9.37089 21.1717 9.61875 20.9282L20.8688 9.67817C21.1126 9.43083 21.2494 9.09742 21.2494 8.75005C21.2494 8.40268 21.1126 8.06927 20.8688 7.82192ZM4.54688 15.5L12.75 7.29692L14.5781 9.12505L6.375 17.3282L4.54688 15.5ZM4.3125 20V16.8594L7.64062 20.1875H4.5C4.45027 20.1875 4.40258 20.1678 4.36742 20.1326C4.33225 20.0975 4.3125 20.0498 4.3125 20ZM9 19.9532L7.17188 18.125L15.375 9.92192L17.2031 11.75L9 19.9532ZM20.0719 8.8813L18 10.9532L13.5469 6.50005L15.6188 4.42817C15.6354 4.40998 15.6557 4.39547 15.6783 4.38553C15.7009 4.3756 15.7253 4.37047 15.75 4.37047C15.7747 4.37047 15.7991 4.3756 15.8217 4.38553C15.8443 4.39547 15.8646 4.40998 15.8812 4.42817L20.0719 8.6188C20.0901 8.63548 20.1046 8.65577 20.1145 8.67836C20.1244 8.70095 20.1296 8.72537 20.1296 8.75005C20.1296 8.77473 20.1244 8.79914 20.1145 8.82173C20.1046 8.84433 20.0901 8.86461 20.0719 8.8813Z" fill="url(#paint0_linear_702_7826)"/>
<defs>
<linearGradient id="paint0_linear_702_7826" x1="12.2184" y1="3.24683" x2="12.2184" y2="21.3125" gradientUnits="userSpaceOnUse">
<stop stop-color="#75D7F0"/>
<stop offset="1" stop-color="#0125D5"/>
</linearGradient>
</defs>
</svg>
