<svg width="25" height="25" viewBox="0 0 25 25" fill="none" xmlns="http://www.w3.org/2000/svg">
<path d="M12.3327 12.9529C11.2327 12.9529 10.2911 12.5612 9.50773 11.7779C8.7244 10.9945 8.33273 10.0529 8.33273 8.95288C8.33273 7.85288 8.7244 6.91121 9.50773 6.12788C10.2911 5.34455 11.2327 4.95288 12.3327 4.95288C13.4327 4.95288 14.3744 5.34455 15.1577 6.12788C15.9411 6.91121 16.3327 7.85288 16.3327 8.95288C16.3327 10.0529 15.9411 10.9945 15.1577 11.7779C14.3744 12.5612 13.4327 12.9529 12.3327 12.9529ZM4.33273 20.9529V18.1529C4.33273 17.5862 4.47873 17.0652 4.77073 16.5899C5.06207 16.1152 5.4494 15.7529 5.93273 15.5029C6.96607 14.9862 8.01607 14.5985 9.08273 14.3399C10.1494 14.0819 11.2327 13.9529 12.3327 13.9529C13.4327 13.9529 14.5161 14.0819 15.5827 14.3399C16.6494 14.5985 17.6994 14.9862 18.7327 15.5029C19.2161 15.7529 19.6034 16.1152 19.8947 16.5899C20.1867 17.0652 20.3327 17.5862 20.3327 18.1529V20.9529H4.33273ZM6.33273 18.9529H18.3327V18.1529C18.3327 17.9695 18.2871 17.8029 18.1957 17.6529C18.1037 17.5029 17.9827 17.3862 17.8327 17.3029C16.9327 16.8529 16.0244 16.5152 15.1077 16.2899C14.1911 16.0652 13.2661 15.9529 12.3327 15.9529C11.3994 15.9529 10.4744 16.0652 9.55773 16.2899C8.64107 16.5152 7.73273 16.8529 6.83273 17.3029C6.68273 17.3862 6.56207 17.5029 6.47073 17.6529C6.37873 17.8029 6.33273 17.9695 6.33273 18.1529V18.9529ZM12.3327 10.9529C12.8827 10.9529 13.3537 10.7569 13.7457 10.3649C14.1371 9.97355 14.3327 9.50288 14.3327 8.95288C14.3327 8.40288 14.1371 7.93221 13.7457 7.54088C13.3537 7.14888 12.8827 6.95288 12.3327 6.95288C11.7827 6.95288 11.3121 7.14888 10.9207 7.54088C10.5287 7.93221 10.3327 8.40288 10.3327 8.95288C10.3327 9.50288 10.5287 9.97355 10.9207 10.3649C11.3121 10.7569 11.7827 10.9529 12.3327 10.9529Z" fill="url(#paint0_linear_702_7653)"/>
<defs>
<linearGradient id="paint0_linear_702_7653" x1="12.3327" y1="4.95288" x2="12.3327" y2="20.9529" gradientUnits="userSpaceOnUse">
<stop stop-color="#75D7F0"/>
<stop offset="1" stop-color="#0125D5"/>
</linearGradient>
</defs>
</svg>
