<svg width="37" height="36" viewBox="0 0 37 36" fill="none" xmlns="http://www.w3.org/2000/svg">
<path d="M18.1822 36C8.24284 36 0.164209 27.914 0.181179 17.981C0.198149 8.048 8.25282 0.00100009 18.1792 9.27544e-08C28.1055 -0.000999907 36.1981 8.084 36.1811 18.018C36.1642 27.952 28.1055 35.999 18.1822 36ZM18.1921 1.286C8.97454 1.276 1.48487 8.751 1.4669 17.978C1.44894 27.205 8.92064 34.687 18.1492 34.714C27.3778 34.741 34.8944 27.236 34.8954 18.001C34.8964 8.766 27.4147 1.295 18.1901 1.286H18.1921Z" fill="#A7F0B7"/>
<path d="M8.54616 15.4555C8.54616 14.6659 8.55615 13.8754 8.54616 13.0869C8.53916 12.7122 8.67306 12.4563 9.00386 12.2684C10.423 11.4609 11.8374 10.6448 13.2472 9.81997C13.3808 9.73227 13.5371 9.68555 13.6969 9.68555C13.8567 9.68555 14.013 9.73227 14.1466 9.81997C15.5571 10.6421 16.9712 11.4586 18.389 12.2694C18.7008 12.4473 18.8557 12.6832 18.8467 13.047C18.8337 13.6216 18.8467 14.1972 18.8467 14.7729C18.8407 15.2186 18.5929 15.4944 18.2131 15.4994C17.8333 15.5044 17.5785 15.2276 17.5615 14.7889C17.5615 14.7489 17.5615 14.7089 17.5615 14.6689C17.5495 14.2032 17.6864 13.6536 17.4836 13.2968C17.2807 12.94 16.744 12.8081 16.3513 12.5792C15.5518 12.1155 14.7523 11.6448 13.9468 11.2021C13.8684 11.1662 13.7832 11.1476 13.6969 11.1476C13.6107 11.1476 13.5255 11.1662 13.4471 11.2021C12.3145 11.8357 11.1902 12.4853 10.0742 13.1509C10.0094 13.197 9.95546 13.2567 9.91596 13.3257C9.87645 13.3947 9.85237 13.4714 9.84535 13.5506C9.82836 14.8079 9.84533 16.0661 9.82834 17.3243C9.82834 17.5631 9.92129 17.6771 10.1132 17.787C11.2195 18.4136 12.3248 19.0442 13.4181 19.6928C13.639 19.8237 13.7899 19.7997 13.9957 19.6798C16.6941 18.1178 19.4044 16.5718 22.0977 14.9987C22.5364 14.7429 22.8842 14.7389 23.3199 14.9987C24.6511 15.7982 26.0013 16.5668 27.3534 17.3303C27.7092 17.5302 27.8661 17.789 27.8621 18.2007C27.8481 19.7671 27.8481 21.3328 27.8621 22.8978C27.8621 23.2976 27.7082 23.5444 27.3684 23.7373C25.9693 24.5295 24.5775 25.3313 23.193 26.1428C23.0491 26.24 22.8794 26.2919 22.7058 26.2919C22.5322 26.2919 22.3625 26.24 22.2186 26.1428C20.8195 25.3233 19.4164 24.5145 18.0092 23.7163C17.6964 23.5384 17.5455 23.2996 17.5555 22.9368C17.5685 22.4021 17.5555 21.8665 17.5555 21.3308C17.5555 20.8901 17.8134 20.6082 18.1881 20.6032C18.5629 20.5982 18.8237 20.8811 18.8397 21.3148C18.8457 21.3679 18.8457 21.4216 18.8397 21.4747C18.6478 22.4081 19.0246 22.9568 19.8991 23.3465C20.7735 23.7363 21.598 24.3119 22.4525 24.7806C22.5309 24.8166 22.6161 24.8352 22.7023 24.8352C22.7885 24.8352 22.8738 24.8166 22.9522 24.7806C24.0848 24.149 25.2097 23.5004 26.3271 22.8348C26.3915 22.7895 26.4454 22.7307 26.4851 22.6626C26.5248 22.5945 26.5493 22.5186 26.5569 22.4401C26.5742 21.1689 26.5742 19.8977 26.5569 18.6265C26.5473 18.5478 26.5209 18.4721 26.4795 18.4046C26.4381 18.337 26.3827 18.279 26.317 18.2347C25.2117 17.5781 24.0914 16.9485 22.9861 16.2939C22.7683 16.164 22.6174 16.185 22.4085 16.3059C19.6992 17.8759 16.9789 19.431 14.2726 21.003C13.8628 21.2418 13.526 21.2468 13.1183 21.003C11.7858 20.2102 10.4406 19.4346 9.08281 18.6764C8.69905 18.4616 8.52416 18.1887 8.53916 17.743C8.56414 16.9815 8.54616 16.218 8.54616 15.4555Z" fill="#A7F0B7"/>
<path d="M18.8436 3.2009C18.8461 3.36954 18.782 3.53236 18.6653 3.65412C18.5486 3.77588 18.3886 3.84678 18.22 3.8515C18.0515 3.85748 17.8874 3.79687 17.7632 3.68278C17.639 3.5687 17.5647 3.41031 17.5564 3.24188C17.5524 3.15514 17.566 3.06849 17.5965 2.98719C17.627 2.90589 17.6737 2.83166 17.7339 2.76901C17.794 2.70636 17.8662 2.65661 17.9462 2.62279C18.0262 2.58897 18.1122 2.57179 18.199 2.57229C18.3677 2.57069 18.5302 2.63589 18.6509 2.75367C18.7717 2.87145 18.841 3.03223 18.8436 3.2009Z" fill="#A7F0B7"/>
<path d="M23.2359 32.5218C23.0674 32.515 22.9085 32.442 22.7936 32.3187C22.6787 32.1954 22.6171 32.0317 22.6222 31.8632C22.6248 31.7764 22.645 31.691 22.6815 31.6122C22.718 31.5334 22.7701 31.4628 22.8347 31.4047C22.8992 31.3466 22.9748 31.3022 23.057 31.2742C23.1392 31.2461 23.2262 31.235 23.3128 31.2416C23.4815 31.2524 23.639 31.3293 23.7513 31.4556C23.8636 31.5819 23.9215 31.7474 23.9124 31.9161C23.8992 32.0847 23.8215 32.2417 23.6955 32.3545C23.5695 32.4673 23.4049 32.5272 23.2359 32.5218Z" fill="#A7F0B7"/>
<path d="M4.92546 12.9147C4.93009 13.0832 4.86837 13.2467 4.7536 13.3701C4.63882 13.4934 4.48019 13.5668 4.31186 13.5743C4.22511 13.5781 4.13849 13.5642 4.05725 13.5336C3.97602 13.5029 3.90185 13.4561 3.83925 13.3959C3.77665 13.3357 3.72691 13.2635 3.69305 13.1835C3.65919 13.1035 3.64193 13.0175 3.64228 12.9307C3.64555 12.7623 3.71348 12.6017 3.832 12.482C3.95053 12.3624 4.11053 12.293 4.27887 12.2881C4.4474 12.2865 4.6098 12.3514 4.73083 12.4687C4.85187 12.586 4.92179 12.7462 4.92546 12.9147Z" fill="#A7F0B7"/>
<path d="M13.7767 4.11333C13.7725 4.28166 13.7022 4.44157 13.581 4.55846C13.4598 4.67536 13.2975 4.73983 13.1291 4.73794C12.9604 4.73821 12.7985 4.67173 12.6786 4.55302C12.5588 4.43431 12.4908 4.27301 12.4895 4.10434C12.4905 4.01756 12.5088 3.93184 12.5432 3.85217C12.5776 3.7725 12.6275 3.70045 12.69 3.64021C12.7524 3.57997 12.8263 3.53273 12.9071 3.50124C12.988 3.46974 13.0743 3.45462 13.1611 3.45674C13.3295 3.463 13.4886 3.53548 13.6039 3.65843C13.7192 3.78137 13.7813 3.94485 13.7767 4.11333Z" fill="#A7F0B7"/>
<path d="M23.9095 4.09367C23.9108 4.26211 23.8457 4.42428 23.7282 4.54497C23.6107 4.66566 23.4503 4.73511 23.2819 4.73827C23.1134 4.74289 22.9499 4.68117 22.8266 4.5664C22.7032 4.45162 22.6298 4.29298 22.6223 4.12465C22.6184 4.03787 22.6322 3.9512 22.6629 3.86994C22.6936 3.78868 22.7405 3.71455 22.8009 3.65206C22.8612 3.58957 22.9336 3.54004 23.0138 3.50652C23.0939 3.47299 23.18 3.45616 23.2669 3.45707C23.4354 3.46009 23.5962 3.52795 23.7158 3.64652C23.8355 3.7651 23.9049 3.92525 23.9095 4.09367Z" fill="#A7F0B7"/>
<path d="M32.7579 12.9247C32.7603 13.0931 32.6962 13.2557 32.5794 13.3772C32.4627 13.4986 32.3027 13.5691 32.1343 13.5733C31.9658 13.5787 31.802 13.5174 31.6785 13.4027C31.555 13.2879 31.4818 13.1291 31.4747 12.9607C31.4703 12.8739 31.4835 12.7872 31.5136 12.7058C31.5437 12.6243 31.5901 12.5499 31.65 12.4869C31.7098 12.424 31.7819 12.3739 31.8617 12.3397C31.9415 12.3055 32.0275 12.288 32.1143 12.2881C32.2828 12.2913 32.4436 12.3592 32.5634 12.4777C32.6832 12.5962 32.7528 12.7563 32.7579 12.9247Z" fill="#A7F0B7"/>
<path d="M18.1931 33.405C18.0245 33.4044 17.8628 33.3372 17.7436 33.2179C17.6243 33.0986 17.5571 32.937 17.5565 32.7683C17.556 32.6814 17.5732 32.5953 17.6071 32.5153C17.641 32.4352 17.6908 32.3629 17.7536 32.3028C17.8163 32.2427 17.8907 32.196 17.9721 32.1655C18.0535 32.1351 18.1403 32.1215 18.2271 32.1258C18.3956 32.132 18.5549 32.2045 18.6703 32.3274C18.7857 32.4503 18.8481 32.6138 18.8437 32.7823C18.839 32.9508 18.7681 33.1107 18.6463 33.2273C18.5245 33.3438 18.3617 33.4077 18.1931 33.405Z" fill="#A7F0B7"/>
<path d="M4.03701 18.0039C4.0336 18.1724 3.96391 18.3327 3.84306 18.4502C3.72222 18.5677 3.55995 18.6328 3.39142 18.6315C3.3045 18.6308 3.21863 18.6125 3.13904 18.5776C3.05944 18.5427 2.98777 18.4919 2.9284 18.4284C2.86903 18.365 2.82322 18.2901 2.79372 18.2083C2.76422 18.1266 2.75165 18.0396 2.7568 17.9529C2.76535 17.7844 2.8401 17.6262 2.96475 17.5126C3.08941 17.399 3.25389 17.3392 3.4224 17.3463C3.59083 17.3528 3.74986 17.4255 3.86495 17.5486C3.98004 17.6718 4.04188 17.8354 4.03701 18.0039Z" fill="#A7F0B7"/>
<path d="M33.6445 17.9838C33.6462 18.1525 33.5813 18.315 33.4641 18.4362C33.3468 18.5574 33.1865 18.6275 33.0179 18.6314C32.9311 18.6334 32.8447 18.6176 32.7641 18.5852C32.6835 18.5527 32.6103 18.5042 32.549 18.4426C32.4877 18.3811 32.4395 18.3077 32.4075 18.2269C32.3754 18.1461 32.36 18.0597 32.3624 17.9728C32.3655 17.8042 32.4353 17.6436 32.5564 17.5262C32.6776 17.4088 32.8403 17.3441 33.0089 17.3462C33.1775 17.3476 33.3387 17.4152 33.4576 17.5346C33.5766 17.6539 33.6438 17.8153 33.6445 17.9838Z" fill="#A7F0B7"/>
<path d="M4.27787 23.6883C4.10946 23.6834 3.94942 23.6138 3.83103 23.4939C3.71264 23.3741 3.64504 23.2132 3.64228 23.0447C3.64191 22.9579 3.65921 22.8719 3.69315 22.7919C3.72709 22.712 3.77695 22.6398 3.83969 22.5798C3.90243 22.5198 3.97676 22.4731 4.05811 22.4428C4.13945 22.4124 4.22612 22.3989 4.31286 22.4031C4.4811 22.4106 4.63964 22.484 4.75426 22.6074C4.86887 22.7308 4.93035 22.8943 4.92546 23.0627C4.92153 23.2312 4.85135 23.3914 4.73013 23.5085C4.6089 23.6256 4.44641 23.6902 4.27787 23.6883Z" fill="#A7F0B7"/>
<path d="M32.7581 23.0425C32.7554 23.2109 32.6881 23.3717 32.5702 23.4918C32.4523 23.612 32.2927 23.6823 32.1245 23.6881C32.0376 23.6897 31.9514 23.6735 31.871 23.6406C31.7906 23.6077 31.7178 23.5587 31.657 23.4967C31.5962 23.4347 31.5487 23.3609 31.5174 23.2799C31.4861 23.1989 31.4716 23.1123 31.4749 23.0255C31.4791 22.857 31.5497 22.697 31.6714 22.5804C31.7931 22.4638 31.9559 22.4 32.1245 22.4029C32.2931 22.4045 32.4542 22.4726 32.5729 22.5924C32.6915 22.7121 32.7581 22.8739 32.7581 23.0425Z" fill="#A7F0B7"/>
<path d="M13.7777 31.862C13.782 32.0305 13.7199 32.1939 13.6047 32.3169C13.4895 32.44 13.3305 32.5128 13.1621 32.5195C13.0754 32.5218 12.9891 32.5068 12.9083 32.4755C12.8274 32.4442 12.7536 32.3972 12.691 32.3371C12.6285 32.2771 12.5785 32.2052 12.5439 32.1257C12.5093 32.0462 12.4908 31.9606 12.4895 31.8739C12.49 31.7053 12.5575 31.5437 12.677 31.4247C12.7966 31.3058 12.9584 31.2391 13.1271 31.2393C13.2956 31.2366 13.4585 31.3005 13.5803 31.417C13.702 31.5336 13.773 31.6935 13.7777 31.862Z" fill="#A7F0B7"/>
<path d="M16.2713 3.43982C16.2685 3.60816 16.2007 3.76888 16.082 3.8883C15.9633 4.00772 15.803 4.07657 15.6347 4.08042C15.548 4.08044 15.4621 4.06313 15.3821 4.02952C15.3021 3.9959 15.2296 3.94665 15.1689 3.88465C15.1083 3.82266 15.0606 3.74916 15.0286 3.66849C14.9967 3.58781 14.9813 3.50158 14.9831 3.41484C14.986 3.33148 15.0052 3.24951 15.0399 3.17364C15.0745 3.09777 15.1238 3.0295 15.1849 2.97275C15.246 2.916 15.3177 2.87189 15.396 2.84297C15.4742 2.81405 15.5574 2.80088 15.6407 2.80422C15.7242 2.8034 15.807 2.81932 15.8842 2.85104C15.9614 2.88276 16.0314 2.92962 16.0902 2.98888C16.149 3.04813 16.1953 3.11856 16.2264 3.19602C16.2575 3.27347 16.2728 3.35637 16.2713 3.43982Z" fill="#A7F0B7"/>
<path d="M21.4172 3.44011C21.4134 3.60831 21.3451 3.76861 21.2264 3.88785C21.1077 4.00709 20.9477 4.07614 20.7796 4.08071C20.6928 4.08074 20.6068 4.06339 20.5269 4.0297C20.4469 3.99601 20.3744 3.94665 20.3138 3.88454C20.2532 3.82242 20.2056 3.7488 20.1738 3.66802C20.1421 3.58723 20.1268 3.5009 20.129 3.41413C20.1307 3.33061 20.1493 3.2483 20.1834 3.17207C20.2175 3.09583 20.2666 3.02722 20.3277 2.97028C20.3889 2.91335 20.4608 2.86925 20.5393 2.84061C20.6177 2.81196 20.7011 2.79935 20.7846 2.80351C20.868 2.80338 20.9507 2.81978 21.0277 2.85177C21.1048 2.88377 21.1748 2.93072 21.2336 2.98991C21.2924 3.0491 21.3389 3.11937 21.3704 3.19664C21.402 3.27392 21.4178 3.35667 21.4172 3.44011Z" fill="#A7F0B7"/>
<path d="M9.33354 6.65353C9.33105 6.8216 9.26507 6.98251 9.14884 7.10393C9.03261 7.22535 8.87473 7.2983 8.70693 7.30813C8.62365 7.31242 8.54036 7.30005 8.46192 7.27174C8.38348 7.24342 8.31147 7.19974 8.25013 7.14324C8.1888 7.08674 8.13934 7.01857 8.10469 6.94272C8.07004 6.86687 8.05088 6.78486 8.04833 6.70151C8.04389 6.61496 8.05696 6.5284 8.08674 6.44701C8.11651 6.36563 8.16237 6.29108 8.22161 6.22783C8.28085 6.16457 8.35225 6.11391 8.43152 6.07888C8.51078 6.04384 8.59629 6.02516 8.68295 6.02393C8.85125 6.02605 9.01237 6.09243 9.13332 6.20948C9.25428 6.32653 9.3259 6.48539 9.33354 6.65353Z" fill="#A7F0B7"/>
<path d="M27.6972 6.02405C27.8654 6.02075 28.0283 6.08324 28.1511 6.19823C28.2739 6.31321 28.347 6.4716 28.3548 6.63967C28.3603 6.72311 28.3491 6.80682 28.3218 6.88586C28.2945 6.9649 28.2516 7.03767 28.1957 7.09988C28.1399 7.1621 28.0721 7.2125 27.9964 7.24811C27.9208 7.28372 27.8387 7.30383 27.7552 7.30725C27.5801 7.31431 27.4094 7.25187 27.2802 7.13354C27.1511 7.01522 27.0739 6.85063 27.0656 6.67565C27.068 6.50699 27.1347 6.34561 27.2521 6.22449C27.3695 6.10338 27.5287 6.03168 27.6972 6.02405Z" fill="#A7F0B7"/>
<path d="M7.50072 8.48971C7.49684 8.65785 7.42928 8.81824 7.31166 8.93846C7.19404 9.05868 7.03515 9.12975 6.86713 9.1373C6.78044 9.13665 6.69472 9.11886 6.61492 9.08496C6.53513 9.05106 6.46282 9.00171 6.40217 8.93976C6.34151 8.8778 6.29371 8.80447 6.26151 8.72397C6.2293 8.64348 6.21335 8.55741 6.21454 8.47072C6.22231 8.30265 6.29518 8.1442 6.41773 8.02892C6.54029 7.91364 6.70291 7.85058 6.87114 7.8531C6.95449 7.85283 7.03703 7.86916 7.114 7.90114C7.19097 7.93312 7.26081 7.98012 7.31942 8.03938C7.37803 8.09864 7.42426 8.16898 7.45539 8.2463C7.48652 8.32362 7.50192 8.40637 7.50072 8.48971Z" fill="#A7F0B7"/>
<path d="M3.66727 19.9146C3.83531 19.9289 3.99139 20.0074 4.10306 20.1337C4.21473 20.2601 4.27342 20.4247 4.2669 20.5932C4.25413 20.7612 4.17731 20.9178 4.05231 21.0307C3.92731 21.1436 3.76371 21.2041 3.59532 21.1998C3.50878 21.196 3.42392 21.1746 3.34594 21.1369C3.26796 21.0992 3.19851 21.046 3.14182 20.9805C3.08512 20.915 3.04239 20.8386 3.01624 20.7561C2.99008 20.6735 2.98104 20.5864 2.98969 20.5003C2.99512 20.4171 3.01703 20.3358 3.05415 20.2612C3.09127 20.1866 3.14286 20.1201 3.20591 20.0656C3.26897 20.0111 3.34223 19.9697 3.42143 19.9438C3.50063 19.9179 3.5842 19.9079 3.66727 19.9146Z" fill="#A7F0B7"/>
<path d="M7.50066 27.5041C7.49978 27.5875 7.48222 27.6699 7.44899 27.7464C7.41575 27.8229 7.36754 27.8919 7.30718 27.9495C7.24682 28.0071 7.17554 28.052 7.09754 28.0815C7.01955 28.1111 6.93642 28.1248 6.85307 28.1217C6.68496 28.1204 6.52403 28.0534 6.40469 27.935C6.28535 27.8166 6.21708 27.6562 6.21448 27.4881C6.21564 27.4014 6.23395 27.3159 6.26835 27.2363C6.30275 27.1568 6.35255 27.0848 6.41489 27.0246C6.47723 26.9644 6.55088 26.9172 6.63158 26.8855C6.71227 26.8539 6.79841 26.8386 6.88506 26.8405C7.05269 26.8524 7.20954 26.9276 7.32384 27.0508C7.43814 27.174 7.50134 27.336 7.50066 27.5041Z" fill="#A7F0B7"/>
<path d="M33.4146 20.5453C33.4172 20.6287 33.4034 20.7118 33.3739 20.7899C33.3444 20.868 33.2998 20.9395 33.2426 21.0003C33.1854 21.0611 33.1168 21.11 33.0406 21.1443C32.9645 21.1785 32.8824 21.1974 32.799 21.1999C32.7122 21.2014 32.626 21.1857 32.5455 21.1535C32.4649 21.1214 32.3915 21.0735 32.3297 21.0126C32.2679 20.9517 32.2189 20.8791 32.1855 20.799C32.1521 20.7189 32.1351 20.633 32.1354 20.5463C32.14 20.378 32.2098 20.2181 32.3301 20.1002C32.4503 19.9824 32.6116 19.9159 32.78 19.9146C32.8634 19.9132 32.9462 19.9284 33.0236 19.9596C33.101 19.9907 33.1714 20.037 33.2306 20.0958C33.2897 20.1546 33.3365 20.2247 33.3681 20.3019C33.3997 20.3791 33.4155 20.4618 33.4146 20.5453Z" fill="#A7F0B7"/>
<path d="M4.26474 15.4055C4.26598 15.5739 4.20211 15.7364 4.08648 15.8589C3.97085 15.9814 3.81239 16.0546 3.64413 16.0631C3.56082 16.0675 3.47745 16.0552 3.39895 16.0269C3.32045 15.9987 3.24841 15.955 3.18704 15.8985C3.12568 15.842 3.07623 15.7737 3.04163 15.6978C3.00702 15.6219 2.98795 15.5398 2.98553 15.4564C2.97953 15.3698 2.99132 15.2829 3.02018 15.2011C3.04904 15.1192 3.09436 15.0441 3.15335 14.9805C3.21234 14.9168 3.28376 14.8659 3.36318 14.8309C3.4426 14.7958 3.52835 14.7775 3.61514 14.7769C3.78355 14.7778 3.94511 14.8436 4.06613 14.9608C4.18716 15.0779 4.2583 15.2372 4.26474 15.4055Z" fill="#A7F0B7"/>
<path d="M16.2703 32.5266C16.2735 32.61 16.26 32.6931 16.2305 32.7711C16.2011 32.8492 16.1563 32.9205 16.0988 32.981C16.0413 33.0415 15.9723 33.0898 15.8959 33.1231C15.8194 33.1565 15.7371 33.1742 15.6537 33.1752C15.5702 33.1802 15.4867 33.1686 15.4077 33.1411C15.3288 33.1136 15.2561 33.0707 15.1939 33.015C15.1316 32.9592 15.081 32.8917 15.045 32.8163C15.009 32.7409 14.9883 32.659 14.9841 32.5756C14.9805 32.4889 14.9942 32.4023 15.0244 32.321C15.0547 32.2397 15.1008 32.1652 15.1602 32.1019C15.2196 32.0386 15.291 31.9878 15.3702 31.9525C15.4494 31.9171 15.5349 31.8979 15.6217 31.896C15.7903 31.8972 15.9518 31.9635 16.0727 32.081C16.1936 32.1985 16.2644 32.3581 16.2703 32.5266Z" fill="#A7F0B7"/>
<path d="M21.4172 32.5339C21.4185 32.6173 21.4033 32.7002 21.3724 32.7778C21.3415 32.8553 21.2955 32.9259 21.2372 32.9856C21.1788 33.0452 21.1092 33.0927 21.0324 33.1253C20.9556 33.1579 20.873 33.175 20.7896 33.1755C20.7067 33.1803 20.6237 33.1686 20.5454 33.1409C20.4671 33.1133 20.3951 33.0702 20.3337 33.0144C20.2723 32.9585 20.2226 32.891 20.1876 32.8157C20.1526 32.7404 20.133 32.6588 20.13 32.5759C20.1269 32.4891 20.1413 32.4026 20.1722 32.3215C20.2032 32.2404 20.2501 32.1664 20.3102 32.1038C20.3704 32.0411 20.4424 31.9912 20.5222 31.9569C20.6019 31.9227 20.6878 31.9048 20.7746 31.9043C20.9419 31.907 21.1019 31.9738 21.2214 32.0909C21.341 32.2081 21.4111 32.3666 21.4172 32.5339Z" fill="#A7F0B7"/>
<path d="M32.794 16.0631C32.6255 16.0656 32.4626 16.0028 32.3394 15.8879C32.2163 15.7729 32.1424 15.6147 32.1334 15.4464C32.1311 15.3597 32.1462 15.2733 32.1777 15.1924C32.2093 15.1115 32.2566 15.0377 32.317 14.9754C32.3774 14.913 32.4497 14.8634 32.5295 14.8293C32.6093 14.7952 32.6952 14.7774 32.782 14.7769C32.8654 14.777 32.948 14.7936 33.0249 14.8259C33.1018 14.8581 33.1715 14.9053 33.2301 14.9647C33.2887 15.0241 33.3349 15.0945 33.366 15.1719C33.3972 15.2493 33.4127 15.3321 33.4116 15.4155C33.4147 15.4988 33.401 15.5819 33.3714 15.6599C33.3419 15.7379 33.297 15.8092 33.2394 15.8696C33.1819 15.9299 33.1128 15.9781 33.0363 16.0114C32.9598 16.0446 32.8774 16.0622 32.794 16.0631Z" fill="#A7F0B7"/>
<path d="M30.1845 8.48579C30.1834 8.65399 30.1178 8.81536 30.0012 8.9366C29.8846 9.05784 29.7259 9.12971 29.5579 9.13739C29.3828 9.13686 29.215 9.06692 29.0914 8.9429C28.9677 8.81889 28.8983 8.65092 28.8983 8.4758C28.8994 8.39247 28.9169 8.31017 28.9499 8.23367C28.983 8.15716 29.0308 8.08796 29.0908 8.03006C29.1507 7.97217 29.2215 7.92673 29.2991 7.89637C29.3767 7.86601 29.4596 7.85133 29.5429 7.85318C29.7111 7.85444 29.8722 7.92122 29.992 8.03933C30.1118 8.15745 30.1809 8.3176 30.1845 8.48579Z" fill="#A7F0B7"/>
<path d="M29.5429 28.1245C29.4595 28.1269 29.3765 28.1126 29.2987 28.0825C29.221 28.0524 29.15 28.0071 29.0899 27.9492C29.0299 27.8913 28.982 27.822 28.9491 27.7454C28.9162 27.6687 28.8989 27.5863 28.8983 27.5029C28.8988 27.3278 28.9686 27.1601 29.0924 27.0364C29.2161 26.9126 29.3839 26.8428 29.5589 26.8423C29.7269 26.8502 29.8855 26.9223 30.0019 27.0438C30.1183 27.1652 30.1837 27.3267 30.1845 27.4949C30.1814 27.663 30.1124 27.8231 29.9924 27.9408C29.8724 28.0586 29.711 28.1245 29.5429 28.1245Z" fill="#A7F0B7"/>
<path d="M8.66001 28.668C8.82829 28.6657 8.99123 28.7271 9.11602 28.84C9.24082 28.953 9.3182 29.109 9.33259 29.2767C9.33511 29.3633 9.32045 29.4495 9.28945 29.5304C9.25845 29.6113 9.21172 29.6852 9.15196 29.748C9.09221 29.8107 9.02062 29.8609 8.94133 29.8958C8.86203 29.9307 8.77661 29.9496 8.69 29.9512C8.5218 29.951 8.36038 29.8848 8.24042 29.7669C8.12047 29.649 8.05152 29.4888 8.04838 29.3206C8.04477 29.2374 8.05781 29.1543 8.08676 29.0762C8.1157 28.998 8.15998 28.9265 8.21695 28.8657C8.27392 28.8049 8.34245 28.7561 8.41853 28.7222C8.49462 28.6882 8.57672 28.6698 8.66001 28.668Z" fill="#A7F0B7"/>
<path d="M27.6682 29.9516C27.5012 29.9359 27.3465 29.8575 27.2351 29.7321C27.1238 29.6066 27.0643 29.4436 27.0686 29.276C27.0839 29.1015 27.1674 28.94 27.3009 28.8266C27.4345 28.7132 27.6074 28.6571 27.7821 28.6704C27.8652 28.6776 27.9461 28.7013 28.0199 28.7402C28.0937 28.779 28.1591 28.8322 28.2121 28.8966C28.2652 28.961 28.3048 29.0353 28.3288 29.1152C28.3528 29.1951 28.3606 29.279 28.3518 29.3619C28.3375 29.5301 28.2579 29.6859 28.1302 29.7961C28.0024 29.9063 27.8366 29.9621 27.6682 29.9516Z" fill="#A7F0B7"/>
<path d="M31.6567 10.5987C31.6585 10.6819 31.6438 10.7647 31.6135 10.8423C31.5831 10.9198 31.5376 10.9906 31.4797 11.0504C31.4218 11.1103 31.3526 11.1581 31.2761 11.191C31.1996 11.2239 31.1173 11.2414 31.0341 11.2423C30.8591 11.2412 30.6917 11.1709 30.5685 11.0467C30.4452 10.9225 30.3762 10.7546 30.3765 10.5797C30.3834 10.4115 30.4553 10.2526 30.577 10.1363C30.6987 10.02 30.8607 9.9554 31.029 9.95606C31.1972 9.95895 31.3574 10.0281 31.4749 10.1484C31.5924 10.2687 31.6577 10.4305 31.6567 10.5987Z" fill="#A7F0B7"/>
<path d="M31.6567 25.3714C31.6594 25.5397 31.5957 25.7023 31.4793 25.8239C31.3629 25.9455 31.2033 26.0163 31.0351 26.021C30.9484 26.0222 30.8624 26.0061 30.7821 25.9736C30.7018 25.941 30.6288 25.8927 30.5674 25.8315C30.5061 25.7703 30.4575 25.6975 30.4248 25.6173C30.392 25.5371 30.3756 25.4511 30.3765 25.3644C30.3846 25.1966 30.4564 25.0381 30.5773 24.9213C30.6982 24.8045 30.859 24.7382 31.0271 24.7358C31.1103 24.7356 31.1928 24.7519 31.2697 24.7838C31.3466 24.8157 31.4164 24.8626 31.475 24.9218C31.5336 24.9809 31.5799 25.0511 31.611 25.1283C31.6422 25.2055 31.6578 25.2882 31.6567 25.3714Z" fill="#A7F0B7"/>
<path d="M11.4403 30.7746C11.4426 30.8578 11.4283 30.9406 11.3984 31.0182C11.3685 31.0959 11.3234 31.1668 11.2659 31.2269C11.2084 31.2871 11.1395 31.3352 11.0633 31.3685C10.987 31.4019 10.9049 31.4198 10.8217 31.4212C10.6542 31.4286 10.4904 31.3699 10.3658 31.2577C10.2411 31.1456 10.1655 30.989 10.1551 30.8216C10.1512 30.7351 10.1648 30.6487 10.1949 30.5675C10.225 30.4864 10.2711 30.4121 10.3305 30.3491C10.3899 30.2861 10.4613 30.2356 10.5405 30.2008C10.6197 30.1659 10.7052 30.1472 10.7917 30.146C10.9593 30.1493 11.1194 30.216 11.2397 30.3327C11.3601 30.4493 11.4318 30.6072 11.4403 30.7746Z" fill="#A7F0B7"/>
<path d="M26.2458 30.7917C26.2437 30.9599 26.1752 31.1205 26.0552 31.2384C25.9352 31.3564 25.7735 31.4221 25.6052 31.4213C25.5219 31.4237 25.439 31.4095 25.3612 31.3795C25.2834 31.3496 25.2124 31.3045 25.1522 31.2468C25.0921 31.1891 25.044 31.1201 25.0107 31.0437C24.9775 30.9673 24.9598 30.885 24.9586 30.8017C24.9591 30.6267 25.0289 30.4591 25.1527 30.3355C25.2765 30.2119 25.4443 30.1424 25.6192 30.1421C25.7874 30.1483 25.9466 30.2194 26.0635 30.3406C26.1803 30.4617 26.2457 30.6234 26.2458 30.7917Z" fill="#A7F0B7"/>
<path d="M11.4413 5.18389C11.4386 5.35217 11.3717 5.51308 11.2543 5.63366C11.1369 5.75423 10.9778 5.82536 10.8097 5.83248C10.723 5.83412 10.6368 5.81821 10.5564 5.78572C10.476 5.75323 10.403 5.70482 10.3417 5.6434C10.2805 5.58198 10.2323 5.50882 10.2001 5.42831C10.1678 5.3478 10.1522 5.2616 10.1541 5.17489C10.1591 5.00692 10.23 4.84767 10.3516 4.73169C10.4732 4.6157 10.6357 4.55231 10.8037 4.55528C10.8869 4.55435 10.9695 4.56992 11.0467 4.60107C11.1239 4.63222 11.1941 4.67835 11.2534 4.73678C11.3127 4.79522 11.3598 4.86481 11.3921 4.94155C11.4243 5.01829 11.441 5.10065 11.4413 5.18389Z" fill="#A7F0B7"/>
<path d="M5.38925 11.2409C5.30603 11.2433 5.22315 11.2292 5.14545 11.1993C5.06775 11.1694 4.99678 11.1243 4.93662 11.0668C4.87647 11.0092 4.82834 10.9403 4.79504 10.864C4.76174 10.7877 4.74394 10.7056 4.74265 10.6223C4.73584 10.4543 4.79546 10.2904 4.90861 10.166C5.02177 10.0416 5.17937 9.96679 5.34728 9.95773C5.43388 9.9537 5.5204 9.96715 5.60169 9.99729C5.68298 10.0274 5.75737 10.0736 5.82042 10.1331C5.88347 10.1926 5.93389 10.2642 5.96867 10.3436C6.00345 10.423 6.02188 10.5086 6.02286 10.5953C6.01918 10.7633 5.95161 10.9237 5.83389 11.0436C5.71617 11.1635 5.55716 11.2341 5.38925 11.2409Z" fill="#A7F0B7"/>
<path d="M26.2461 5.19853C26.243 5.36681 26.1743 5.52721 26.0546 5.64557C25.9349 5.76392 25.7738 5.83087 25.6055 5.83214C25.5189 5.83071 25.4335 5.81218 25.3541 5.7776C25.2747 5.74303 25.203 5.69309 25.143 5.63067C25.083 5.56825 25.0359 5.49458 25.0045 5.4139C24.9731 5.33322 24.9579 5.24712 24.9599 5.16056C24.963 5.07733 24.9825 4.99554 25.0174 4.91992C25.0523 4.84431 25.1019 4.77637 25.1632 4.72004C25.2246 4.66371 25.2965 4.62012 25.3748 4.59178C25.4531 4.56344 25.5363 4.55091 25.6195 4.55493C25.7875 4.55835 25.9475 4.62778 26.0648 4.74823C26.182 4.86867 26.2472 5.03044 26.2461 5.19853Z" fill="#A7F0B7"/>
<path d="M5.38921 24.7356C5.55721 24.7422 5.71636 24.8127 5.83412 24.9327C5.95188 25.0527 6.01938 25.2131 6.02282 25.3812C6.0217 25.4679 6.00318 25.5534 5.96836 25.6329C5.93355 25.7123 5.88312 25.7838 5.82012 25.8434C5.75711 25.903 5.68281 25.9493 5.60157 25.9796C5.52034 26.0099 5.43386 26.0235 5.34724 26.0198C5.17943 26.0105 5.02197 25.9356 4.90887 25.8113C4.79576 25.6869 4.73606 25.5231 4.74261 25.3552C4.74391 25.2719 4.76171 25.1897 4.795 25.1134C4.82829 25.037 4.8764 24.968 4.93654 24.9104C4.99668 24.8527 5.06764 24.8076 5.14534 24.7776C5.22305 24.7476 5.30594 24.7333 5.38921 24.7356Z" fill="#A7F0B7"/>
</svg>
