<svg width="138" height="88" viewBox="0 0 138 88" fill="none" xmlns="http://www.w3.org/2000/svg">
<path opacity="0.5" d="M17.3137 54.9374C12.2214 53.2676 8.1476 50.4288 5.09225 46.4213C2.0369 42.0797 0.339483 37.4042 0 32.3947C0 27.3852 1.35793 22.5427 4.0738 17.8672C7.12915 12.8577 11.7122 8.68311 17.8229 5.34345C27.6679 0 36.155 -1.33586 43.2841 1.33586C50.7528 4.00759 56.1845 8.01518 59.5793 13.3586C61.2768 16.0304 62.4649 19.704 63.1439 24.3795C64.1624 28.7211 64.5018 33.5636 64.1624 38.907C64.1624 43.9165 63.6531 48.926 62.6347 53.9355C61.6162 58.945 60.0886 63.1195 58.0517 66.4592C56.3542 69.1309 54.3173 71.8027 51.941 74.4744C49.9041 76.8121 47.3579 79.1499 44.3026 81.4877C41.5867 83.8254 38.3616 85.9962 34.6273 88L16.2952 86.4972C18.6716 83.8254 20.8782 81.4877 22.9151 79.4839C24.952 77.1461 26.6494 75.1423 28.0074 73.4725C29.3653 71.8027 30.7232 70.2998 32.0812 68.964C34.1181 66.6262 35.8155 64.2884 37.1734 61.9507C38.5314 59.9469 39.7196 57.9431 40.738 55.9393C41.7565 53.6015 41.9262 51.2638 41.2472 48.926C38.5314 51.5977 35.8155 53.4345 33.0996 54.4364C30.3838 55.4383 27.8376 55.9393 25.4613 55.9393C22.7454 56.2732 20.0295 55.9393 17.3137 54.9374ZM87.5867 51.9317C82.8339 49.5939 79.2694 46.2543 76.893 41.9127C74.8561 37.2372 74.1771 32.3947 74.8561 27.3852C75.5351 22.3757 77.572 17.7002 80.9668 13.3586C84.3616 9.01708 89.4539 5.67742 96.2435 3.33966C106.768 -0.333966 115.424 -0.166983 122.214 3.84061C129.004 7.8482 133.756 12.6907 136.472 18.3681C137.491 21.3738 138 25.2144 138 29.8899C138 34.5655 137.491 39.408 136.472 44.4175C135.454 49.4269 133.926 54.2695 131.889 58.945C130.192 63.6205 128.155 67.4611 125.779 70.4668C123.742 72.8046 121.365 74.9753 118.649 76.9791C116.273 78.649 113.387 80.4858 109.993 82.4896C106.937 84.4934 103.373 86.1632 99.2989 87.499L81.476 83.4915C84.1919 81.1537 86.5683 79.1499 88.6052 77.4801C90.9816 75.4763 93.0185 73.8065 94.7159 72.4706C96.4133 71.1347 98.1107 69.9658 99.8081 68.964C102.185 66.9602 104.221 64.9564 105.919 62.9526C107.616 61.2827 108.974 59.4459 109.993 57.4421C111.351 55.1044 112.03 52.5996 112.03 49.9279C109.314 52.2657 106.428 53.7685 103.373 54.4364C100.657 54.7704 98.1107 54.7704 95.7343 54.4364C93.0185 54.1025 90.3026 53.2676 87.5867 51.9317Z" fill="url(#paint0_linear_702_7626)"/>
<defs>
<linearGradient id="paint0_linear_702_7626" x1="69" y1="0" x2="69" y2="88" gradientUnits="userSpaceOnUse">
<stop stop-color="#75D7F0"/>
<stop offset="1" stop-color="#0125D5"/>
</linearGradient>
</defs>
</svg>
