<svg width="120" height="120" viewBox="0 0 120 120" fill="none" xmlns="http://www.w3.org/2000/svg">
<g clip-path="url(#clip0_702_7672)">
<path d="M20 30H26.6667V36.6667H20V30Z" fill="url(#paint0_linear_702_7672)"/>
<path d="M33.3333 30H80V36.6667H33.3333V30Z" fill="url(#paint1_linear_702_7672)"/>
<path d="M20 56.6667H26.6667V63.3334H20V56.6667Z" fill="url(#paint2_linear_702_7672)"/>
<path d="M33.3333 56.6667H80V63.3334H33.3333V56.6667Z" fill="url(#paint3_linear_702_7672)"/>
<path d="M106.667 16.6667H13.3334C11.5652 16.6667 9.86955 17.3691 8.61931 18.6193C7.36907 19.8696 6.66669 21.5652 6.66669 23.3334V96.6667C6.66669 98.4348 7.36907 100.13 8.61931 101.381C9.86955 102.631 11.5652 103.333 13.3334 103.333H106.667C108.435 103.333 110.13 102.631 111.381 101.381C112.631 100.13 113.333 98.4348 113.333 96.6667V23.3334C113.333 21.5652 112.631 19.8696 111.381 18.6193C110.13 17.3691 108.435 16.6667 106.667 16.6667ZM13.3334 23.3334H106.667V43.3334H13.3334V23.3334ZM13.3334 50H106.667V70H13.3334V50ZM13.3334 96.6667V76.6667H106.667V96.6667H13.3334Z" fill="url(#paint4_linear_702_7672)"/>
<path d="M20 83.3333H26.6667V90H20V83.3333Z" fill="url(#paint5_linear_702_7672)"/>
<path d="M33.3333 83.3333H80V90H33.3333V83.3333Z" fill="url(#paint6_linear_702_7672)"/>
</g>
<defs>
<linearGradient id="paint0_linear_702_7672" x1="23.3333" y1="30" x2="23.3333" y2="36.6667" gradientUnits="userSpaceOnUse">
<stop stop-color="#79F0A9"/>
<stop offset="1" stop-color="#0125D5"/>
</linearGradient>
<linearGradient id="paint1_linear_702_7672" x1="56.6666" y1="30" x2="56.6666" y2="36.6667" gradientUnits="userSpaceOnUse">
<stop stop-color="#79F0A9"/>
<stop offset="1" stop-color="#0125D5"/>
</linearGradient>
<linearGradient id="paint2_linear_702_7672" x1="23.3333" y1="56.6667" x2="23.3333" y2="63.3334" gradientUnits="userSpaceOnUse">
<stop stop-color="#79F0A9"/>
<stop offset="1" stop-color="#0125D5"/>
</linearGradient>
<linearGradient id="paint3_linear_702_7672" x1="56.6666" y1="56.6667" x2="56.6666" y2="63.3334" gradientUnits="userSpaceOnUse">
<stop stop-color="#79F0A9"/>
<stop offset="1" stop-color="#0125D5"/>
</linearGradient>
<linearGradient id="paint4_linear_702_7672" x1="60" y1="16.6667" x2="60" y2="103.333" gradientUnits="userSpaceOnUse">
<stop stop-color="#79F0A9"/>
<stop offset="1" stop-color="#0125D5"/>
</linearGradient>
<linearGradient id="paint5_linear_702_7672" x1="23.3333" y1="83.3333" x2="23.3333" y2="90" gradientUnits="userSpaceOnUse">
<stop stop-color="#79F0A9"/>
<stop offset="1" stop-color="#0125D5"/>
</linearGradient>
<linearGradient id="paint6_linear_702_7672" x1="56.6666" y1="83.3333" x2="56.6666" y2="90" gradientUnits="userSpaceOnUse">
<stop stop-color="#79F0A9"/>
<stop offset="1" stop-color="#0125D5"/>
</linearGradient>
<clipPath id="clip0_702_7672">
<rect width="120" height="120" fill="white"/>
</clipPath>
</defs>
</svg>
