<svg width="298" height="362" viewBox="0 0 298 362" fill="none" xmlns="http://www.w3.org/2000/svg">
<g clip-path="url(#clip0_702_7738)">
<path d="M143.49 105.61L180.13 107.48L132.67 94.98L143.49 105.61ZM10.72 226.9L9.09 241.08L47.8001 291.73L55.57 241.41L10.72 226.9ZM182.44 108.63L143.61 106.63L136.39 125.45L182.44 108.63ZM58.73 242.18L149.65 303.18L86.4 248.69L58.73 242.18ZM8.31998 239.57L9.80009 226.71L1.31998 227.06L8.31998 239.57ZM156.67 308.5L143.67 360.23L142.72 359.99L155.66 308.39L56.51 241.89L48.6701 292.71L136.6 356.15L136.02 356.96L51.0201 295.64L73.43 322.58L72.69 323.2L47.76 293.29L8.24003 241.57V241.5L0.130041 226.94C0.0830696 226.873 0.0585036 226.792 0.0599727 226.71C0.0500063 226.661 0.0500063 226.609 0.0599727 226.56L28.26 107.06C28.272 106.98 28.3107 106.906 28.37 106.85L85.3901 37.8C85.4306 37.7494 85.4818 37.7085 85.54 37.68L153.68 0.0300005C153.752 0.00995832 153.828 0.00995832 153.9 0.0300005C153.966 0.0162504 154.034 0.0162504 154.1 0.0300005L154.31 0.160001L153.86 0.900001L87.24 37.88L87.06 38.88L86.53 38.78L92.86 56.05L120.24 80.38L222.45 63.38L222.6 64.25L121.07 81.15L131.24 93.61L184.74 107.69L185.46 108.34L209.62 188.8L208.62 189.09L184.52 108.88L135.82 126.67L122.56 156.38L122.18 157.38L87.18 248.04L156.04 307.37L156.53 306.28L157.43 306.68L229.86 254.54L209.31 191.39L210.23 191.09L230.77 254.18L251.77 250.18L251.96 251.18L230.72 255.24L165.46 302.18L251.96 251.18L252.45 252L156.67 308.5Z" fill="url(#paint0_linear_702_7738)"/>
<path d="M256.08 249.27L290.24 238.94L281.95 216.69L256.08 249.27ZM291.24 239.8L287.18 251.5L296.18 240.72L291.24 239.8ZM255.14 250.55L239.47 299.47L285.38 253.6L290.12 239.97L255.14 250.55ZM143.67 360.23L237.85 300.95L253.77 251.24L252.46 252.01L251.97 251.19L251.78 250.19L254.38 249.7L281.24 215.89L210.24 190.8L210.33 191.08L209.41 191.38L157.48 306.7L156.58 306.3L208.76 190.3L122.24 157.4L122.62 156.4L208.68 189.11L209.68 188.82L209.9 189.56L281.24 214.8L225.15 64.23L185.48 108.34L184.76 107.69L224.03 64.01L222.56 64.25L222.41 63.38L87.08 38.89L87.26 37.89L224.91 62.75L227.6 45.95L153.91 0.949999L154.36 0.209999L228.36 45.35C228.435 45.4003 228.5 45.4648 228.55 45.54L270.3 119.25C270.323 119.294 270.339 119.341 270.35 119.39L297.54 240.3C297.55 240.36 297.55 240.42 297.54 240.48C297.52 240.554 297.49 240.625 297.45 240.69L286.13 254.2L286.06 254.27L238.64 301.64L208.56 329.1L208.44 329.18L143.17 361.74H142.91V361.8H142.73L72.91 323.4C72.8518 323.372 72.8006 323.331 72.76 323.28L72.69 323.19L73.43 322.57L136.02 356.95L136.6 356.14L142.6 360.47L142.72 359.98L143.67 360.23ZM207.91 328.37L233.82 304.69L151.71 356.37L207.91 328.37ZM296.1 239.72L284.38 220.44L291.24 238.8L296.1 239.72Z" fill="url(#paint1_linear_702_7738)"/>
</g>
<defs>
<linearGradient id="paint0_linear_702_7738" x1="126.251" y1="0.0149689" x2="126.251" y2="360.23" gradientUnits="userSpaceOnUse">
<stop stop-color="#0125D5"/>
<stop offset="1" stop-color="#49B7B1"/>
</linearGradient>
<linearGradient id="paint1_linear_702_7738" x1="185.119" y1="0.209999" x2="185.119" y2="361.8" gradientUnits="userSpaceOnUse">
<stop stop-color="#0125D5"/>
<stop offset="1" stop-color="#49B7B1"/>
</linearGradient>
<clipPath id="clip0_702_7738">
<rect width="297.54" height="361.81" fill="white"/>
</clipPath>
</defs>
</svg>
