<svg width="186" height="196" viewBox="0 0 186 196" fill="none" xmlns="http://www.w3.org/2000/svg">
<g clip-path="url(#clip0_702_8551)">
<path d="M153.282 78.6097L139.816 95.3707L153.16 110.135L156.75 105.294L153.282 78.6097ZM150.422 61.9169L134.786 36.1408L152.923 76.511L150.422 61.9169ZM139.582 94.9821L153.179 78.053L133.138 33.4387L117.364 49.7301L139.582 94.9821ZM133.371 32.9249L150.796 61.7085C150.812 61.7313 150.822 61.757 150.826 61.7841L153.634 78.0331L157.173 105.313L157.158 105.339L157.051 112.382C157.054 112.416 157.046 112.451 157.028 112.48C157.021 112.501 157.011 112.519 156.996 112.535L121.454 150.281C121.433 150.308 121.403 150.327 121.369 150.335L86.2497 163.414L86.1064 163.029L119.298 150.646L88.1686 155.336L88.1091 154.941L121.165 149.954L156.459 112.469L153.13 110.727L152.633 111.065L152.399 110.719L152.385 110.287L152.669 110.276L139.348 95.5148L139.363 95.4892L129.87 86.5954L98.2854 112.072L98.0213 111.744L129.653 86.2608L116.998 50.026L116.589 50.3211L116.344 49.9848L78.8492 53.7597L73.0312 81.1917L72.6314 81.1072L78.4404 53.6992L68.8789 50.3632L52.0004 57.0403L51.8378 56.6295L68.1622 50.1689L53.4908 46.74L53.0731 46.6695L53.0888 46.5664L51.4979 45.2091L51.7749 44.8814L53.3188 46.2018L57.2737 42.7805L57.1355 42.4033L58.2031 42.0152L58.2435 42.0044L85.5858 34.6935L102.383 31.0025L102.444 30.9986L133.176 32.8659L133.271 32.9208L133.286 32.8952L133.371 32.9249ZM138.832 94.4074L118.462 52.9042L130.087 86.1847L138.832 94.4074Z" fill="url(#paint0_linear_702_8551)"/>
<path d="M35.8428 97.4406L35.5794 129.913L39.8936 124.602L35.8428 97.4406ZM85.7915 120.715L65.3982 117.147L79.1756 126.077L85.7915 120.715ZM51.3345 56.9776L51.0908 46.0662L35.8977 94.7613L40.1481 123.326L51.3345 56.9776ZM72.8001 82.1748L64.6716 116.581L86.2367 120.358L97.3585 112.293L72.8001 82.1748ZM85.8407 163.549L52.9735 162.93C52.9429 162.923 52.9151 162.907 52.893 162.884C52.8681 162.869 52.8468 162.848 52.8305 162.824L52.8122 162.813L35.2322 130.59C35.2154 130.556 35.2054 130.519 35.2029 130.481L35.4978 94.7108C35.4989 94.6899 35.5027 94.6691 35.5091 94.6491L51.0959 44.6892C51.1048 44.6653 51.1177 44.6431 51.1339 44.6234C51.1567 44.6005 51.1827 44.581 51.2112 44.5656L57.1356 42.4032L57.2738 42.7804L51.7066 44.8224L51.7834 44.8667L51.5064 45.1944L51.7217 54.7194L53.0816 46.6548L53.4993 46.7253L51.8332 56.6122L51.9958 57.023L51.9203 57.0525L72.5933 81.207L72.6195 81.0856L73.0193 81.1702L116.333 49.9633L116.577 50.2996L73.0043 81.7027L97.7132 112.025L98.0433 111.757L98.3074 112.085L152.414 110.304L152.428 110.736L97.7967 112.556L82.5692 140.518L87.35 154.98L152.417 110.73L152.652 111.075L88.1274 154.951L88.187 155.347L87.427 155.464L86.1085 163.026L86.2519 163.411L85.9208 163.537C85.8953 163.546 85.868 163.551 85.8407 163.549ZM64.2337 116.597L72.4562 81.7569L51.679 57.4788L40.3761 124.349L64.2337 116.597Z" fill="url(#paint1_linear_702_8551)"/>
<path d="M51.7064 44.8224L57.2736 42.7804L53.3166 46.2054L51.7748 44.8813L51.7064 44.8224Z" fill="url(#paint2_linear_702_8551)"/>
</g>
<defs>
<linearGradient id="paint0_linear_702_8551" x1="63.1414" y1="150.073" x2="131.425" y2="31.8014" gradientUnits="userSpaceOnUse">
<stop stop-color="#40A4B5"/>
<stop offset="1" stop-color="#0125D5"/>
</linearGradient>
<linearGradient id="paint1_linear_702_8551" x1="52.8172" y1="162.848" x2="117.576" y2="50.6814" gradientUnits="userSpaceOnUse">
<stop stop-color="#40A4B5"/>
<stop offset="1" stop-color="#0125D5"/>
</linearGradient>
<linearGradient id="paint2_linear_702_8551" x1="53.1557" y1="46.1125" x2="55.628" y2="41.8303" gradientUnits="userSpaceOnUse">
<stop stop-color="#40A4B5"/>
<stop offset="1" stop-color="#0125D5"/>
</linearGradient>
<clipPath id="clip0_702_8551">
<rect width="125.644" height="152.779" fill="white" transform="translate(109.168 195.384) rotate(-150)"/>
</clipPath>
</defs>
</svg>
