<svg width="38" height="38" viewBox="0 0 38 38" fill="none" xmlns="http://www.w3.org/2000/svg">
<path d="M26.2633 12.2289C26.1072 12.0967 25.9183 12.0092 25.7164 11.9758C25.5146 11.9424 25.3076 11.9642 25.1172 12.0391L12.1375 17.1368C11.9098 17.2235 11.717 17.3827 11.5887 17.5897C11.4604 17.7968 11.4037 18.0404 11.4273 18.2828C11.4485 18.5252 11.5476 18.7542 11.7099 18.9355C11.8721 19.1168 12.0888 19.2406 12.3273 19.2883L15.625 19.9422V24.0625C15.6249 24.2854 15.691 24.5033 15.8149 24.6886C15.9389 24.8739 16.115 25.0182 16.3211 25.1032C16.4575 25.158 16.603 25.1867 16.75 25.1875C16.8978 25.1881 17.0441 25.1591 17.1806 25.1023C17.317 25.0456 17.4407 24.9622 17.5445 24.8571L19.3727 23.036L22.1359 25.4688C22.3399 25.6487 22.6022 25.7486 22.8742 25.75C22.9938 25.7525 23.1129 25.7334 23.2258 25.6938C23.4113 25.6351 23.5783 25.5289 23.7103 25.3859C23.8422 25.2428 23.9346 25.0678 23.9781 24.8782L26.6219 13.3328C26.6681 13.1336 26.6591 12.9256 26.5959 12.7311C26.5328 12.5366 26.4177 12.363 26.2633 12.2289ZM16.0539 18.8805L12.5523 18.1844L22.368 14.3242L16.0539 18.8805ZM16.75 24.0625V20.7297L18.5219 22.2907L16.75 24.0625ZM22.8813 24.625L17.0875 19.5274L25.4336 13.5016L22.8813 24.625Z" fill="#A7F0B7"/>
<rect x="0.5" y="0.5" width="37" height="37" rx="18.5" stroke="#A7F0B7"/>
</svg>
