<svg width="38" height="38" viewBox="0 0 38 38" fill="none" xmlns="http://www.w3.org/2000/svg">
<path d="M26.2633 12.2288C26.1072 12.0966 25.9183 12.0091 25.7164 11.9757C25.5146 11.9422 25.3076 11.9641 25.1172 12.039L12.1375 17.1366C11.9098 17.2234 11.717 17.3825 11.5887 17.5896C11.4604 17.7967 11.4037 18.0402 11.4273 18.2827C11.4485 18.5251 11.5476 18.7541 11.7099 18.9354C11.8721 19.1167 12.0888 19.2405 12.3273 19.2882L15.625 19.9421V24.0624C15.6249 24.2853 15.691 24.5032 15.8149 24.6885C15.9389 24.8738 16.115 25.0181 16.3211 25.103C16.4575 25.1579 16.603 25.1865 16.75 25.1874C16.8978 25.1879 17.0441 25.159 17.1806 25.1022C17.317 25.0455 17.4407 24.9621 17.5445 24.8569L19.3727 23.0358L22.1359 25.4687C22.3399 25.6486 22.6022 25.7485 22.8742 25.7499C22.9938 25.7524 23.1129 25.7333 23.2258 25.6937C23.4113 25.635 23.5783 25.5288 23.7103 25.3858C23.8422 25.2427 23.9346 25.0677 23.9781 24.878L26.6219 13.3327C26.6681 13.1335 26.6591 12.9255 26.5959 12.731C26.5328 12.5364 26.4177 12.3628 26.2633 12.2288ZM16.0539 18.8804L12.5523 18.1843L22.368 14.3241L16.0539 18.8804ZM16.75 24.0624V20.7296L18.5219 22.2905L16.75 24.0624ZM22.8813 24.6249L17.0875 19.5273L25.4336 13.5015L22.8813 24.6249Z" fill="white"/>
<rect x="0.5" y="0.5" width="37" height="37" rx="18.5" stroke="white"/>
</svg>
